# MagicaVoxel @ Ephtracy

# material
mtllib boxpad.mtl
usemtl palette

# normals
vn -1 0 0
vn 1 0 0
vn 0 0 1
vn 0 0 -1
vn 0 -1 0
vn 0 1 0

# texcoords
vt 0.0175781 0.5
vt 0.0292969 0.5

# verts
v -8 0 8
v -8 0 5
v -8 0 2
v -8 0 -2
v -8 0 -5
v -8 0 -8
v -8 1 8
v -8 1 7
v -8 1 6
v -8 1 5
v -8 1 2
v -8 1 -2
v -8 1 -5
v -8 1 -6
v -8 1 -7
v -8 1 -8
v -8 2 7
v -8 2 6
v -8 2 -6
v -8 2 -7
v -8 5 7
v -8 5 6
v -8 5 -6
v -8 5 -7
v -8 8 7
v -8 8 6
v -8 8 -6
v -8 8 -7
v -8 11 7
v -8 11 6
v -8 11 -6
v -8 11 -7
v -8 13 8
v -8 13 7
v -8 13 6
v -8 13 -6
v -8 13 -7
v -8 13 -8
v -8 14 8
v -8 14 -8
v -7 1 8
v -7 1 7
v -7 1 6
v -7 1 5
v -7 1 2
v -7 1 -2
v -7 1 -5
v -7 1 -6
v -7 1 -7
v -7 1 -8
v -7 2 7
v -7 2 6
v -7 2 -6
v -7 2 -7
v -7 5 7
v -7 5 6
v -7 5 -6
v -7 5 -7
v -7 8 7
v -7 8 6
v -7 8 -6
v -7 8 -7
v -7 11 7
v -7 11 6
v -7 11 -6
v -7 11 -7
v -7 13 8
v -7 13 7
v -7 13 6
v -7 13 5
v -7 13 2
v -7 13 -2
v -7 13 -5
v -7 13 -6
v -7 13 -7
v -7 13 -8
v 6 1 8
v 6 1 7
v 6 1 -7
v 6 1 -8
v 6 2 7
v 6 2 -7
v 6 5 7
v 6 5 -7
v 6 8 7
v 6 8 -7
v 6 11 7
v 6 11 -7
v 6 13 8
v 6 13 7
v 6 13 -7
v 6 13 -8
v 7 13 7
v 7 13 5
v 7 13 2
v 7 13 -2
v 7 13 -5
v 7 13 -7
v 7 14 7
v 7 14 -7
v -7 13 7
v -7 13 5
v -7 13 2
v -7 13 -2
v -7 13 -5
v -7 13 -7
v -7 14 7
v -7 14 -7
v -6 1 8
v -6 1 7
v -6 1 -7
v -6 1 -8
v -6 2 7
v -6 2 -7
v -6 5 7
v -6 5 -7
v -6 8 7
v -6 8 -7
v -6 11 7
v -6 11 -7
v -6 13 8
v -6 13 7
v -6 13 -7
v -6 13 -8
v 7 1 8
v 7 1 7
v 7 1 6
v 7 1 5
v 7 1 2
v 7 1 -2
v 7 1 -5
v 7 1 -6
v 7 1 -7
v 7 1 -8
v 7 2 7
v 7 2 6
v 7 2 -6
v 7 2 -7
v 7 5 7
v 7 5 6
v 7 5 -6
v 7 5 -7
v 7 8 7
v 7 8 6
v 7 8 -6
v 7 8 -7
v 7 11 7
v 7 11 6
v 7 11 -6
v 7 11 -7
v 7 13 8
v 7 13 7
v 7 13 6
v 7 13 5
v 7 13 2
v 7 13 -2
v 7 13 -5
v 7 13 -6
v 7 13 -7
v 7 13 -8
v 8 0 8
v 8 0 5
v 8 0 2
v 8 0 -2
v 8 0 -5
v 8 0 -8
v 8 1 8
v 8 1 7
v 8 1 6
v 8 1 5
v 8 1 2
v 8 1 -2
v 8 1 -5
v 8 1 -6
v 8 1 -7
v 8 1 -8
v 8 2 7
v 8 2 6
v 8 2 -6
v 8 2 -7
v 8 5 7
v 8 5 6
v 8 5 -6
v 8 5 -7
v 8 8 7
v 8 8 6
v 8 8 -6
v 8 8 -7
v 8 11 7
v 8 11 6
v 8 11 -6
v 8 11 -7
v 8 13 8
v 8 13 7
v 8 13 6
v 8 13 -6
v 8 13 -7
v 8 13 -8
v 8 14 8
v 8 14 -8
v -8 0 8
v -8 1 8
v -8 13 8
v -8 14 8
v -7 1 8
v -7 13 8
v -6 1 8
v -6 13 8
v 6 1 8
v 6 13 8
v 7 1 8
v 7 13 8
v 8 0 8
v 8 1 8
v 8 13 8
v 8 14 8
v -8 1 7
v -8 2 7
v -8 5 7
v -8 8 7
v -8 11 7
v -8 13 7
v -7 1 7
v -7 2 7
v -7 5 7
v -7 8 7
v -7 11 7
v -7 13 7
v -6 1 7
v -6 2 7
v -6 5 7
v -6 8 7
v -6 11 7
v -6 13 7
v 6 1 7
v 6 2 7
v 6 5 7
v 6 8 7
v 6 11 7
v 6 13 7
v 7 1 7
v 7 2 7
v 7 5 7
v 7 8 7
v 7 11 7
v 7 13 7
v 8 1 7
v 8 2 7
v 8 5 7
v 8 8 7
v 8 11 7
v 8 13 7
v -8 1 -6
v -8 2 -6
v -8 5 -6
v -8 8 -6
v -8 11 -6
v -8 13 -6
v -7 1 -6
v -7 2 -6
v -7 5 -6
v -7 8 -6
v -7 11 -6
v -7 13 -6
v 7 1 -6
v 7 2 -6
v 7 5 -6
v 7 8 -6
v 7 11 -6
v 7 13 -6
v 8 1 -6
v 8 2 -6
v 8 5 -6
v 8 8 -6
v 8 11 -6
v 8 13 -6
v -7 13 -7
v -7 14 -7
v 7 13 -7
v 7 14 -7
v -7 13 7
v -7 14 7
v 7 13 7
v 7 14 7
v -8 1 6
v -8 2 6
v -8 5 6
v -8 8 6
v -8 11 6
v -8 13 6
v -7 1 6
v -7 2 6
v -7 5 6
v -7 8 6
v -7 11 6
v -7 13 6
v 7 1 6
v 7 2 6
v 7 5 6
v 7 8 6
v 7 11 6
v 7 13 6
v 8 1 6
v 8 2 6
v 8 5 6
v 8 8 6
v 8 11 6
v 8 13 6
v -8 1 -7
v -8 2 -7
v -8 5 -7
v -8 8 -7
v -8 11 -7
v -8 13 -7
v -7 1 -7
v -7 2 -7
v -7 5 -7
v -7 8 -7
v -7 11 -7
v -7 13 -7
v -6 1 -7
v -6 2 -7
v -6 5 -7
v -6 8 -7
v -6 11 -7
v -6 13 -7
v 6 1 -7
v 6 2 -7
v 6 5 -7
v 6 8 -7
v 6 11 -7
v 6 13 -7
v 7 1 -7
v 7 2 -7
v 7 5 -7
v 7 8 -7
v 7 11 -7
v 7 13 -7
v 8 1 -7
v 8 2 -7
v 8 5 -7
v 8 8 -7
v 8 11 -7
v 8 13 -7
v -8 0 -8
v -8 1 -8
v -8 13 -8
v -8 14 -8
v -7 1 -8
v -7 13 -8
v -6 1 -8
v -6 13 -8
v 6 1 -8
v 6 13 -8
v 7 1 -8
v 7 13 -8
v 8 0 -8
v 8 1 -8
v 8 13 -8
v 8 14 -8
v -8 0 8
v 8 0 8
v -8 0 5
v 8 0 5
v -8 0 2
v 8 0 2
v -8 0 -2
v 8 0 -2
v -8 0 -5
v 8 0 -5
v -8 0 -8
v 8 0 -8
v -8 13 8
v -7 13 8
v -6 13 8
v 6 13 8
v 7 13 8
v 8 13 8
v -8 13 7
v -7 13 7
v -6 13 7
v 6 13 7
v 7 13 7
v 8 13 7
v -8 13 6
v -7 13 6
v 7 13 6
v 8 13 6
v -7 13 5
v 7 13 5
v -7 13 2
v 7 13 2
v -7 13 -2
v 7 13 -2
v -7 13 -5
v 7 13 -5
v -8 13 -6
v -7 13 -6
v 7 13 -6
v 8 13 -6
v -8 13 -7
v -7 13 -7
v -6 13 -7
v 6 13 -7
v 7 13 -7
v 8 13 -7
v -8 13 -8
v -7 13 -8
v -6 13 -8
v 6 13 -8
v 7 13 -8
v 8 13 -8
v -8 1 8
v -7 1 8
v -6 1 8
v 6 1 8
v 7 1 8
v 8 1 8
v -8 1 7
v -7 1 7
v -6 1 7
v 6 1 7
v 7 1 7
v 8 1 7
v -8 1 6
v -7 1 6
v 7 1 6
v 8 1 6
v -8 1 5
v -7 1 5
v 7 1 5
v 8 1 5
v -8 1 2
v -7 1 2
v 7 1 2
v 8 1 2
v -8 1 -2
v -7 1 -2
v 7 1 -2
v 8 1 -2
v -8 1 -5
v -7 1 -5
v 7 1 -5
v 8 1 -5
v -8 1 -6
v -7 1 -6
v 7 1 -6
v 8 1 -6
v -8 1 -7
v -7 1 -7
v -6 1 -7
v 6 1 -7
v 7 1 -7
v 8 1 -7
v -8 1 -8
v -7 1 -8
v -6 1 -8
v 6 1 -8
v 7 1 -8
v 8 1 -8
v -7 13 7
v 7 13 7
v -7 13 5
v 7 13 5
v -7 13 2
v 7 13 2
v -7 13 -2
v 7 13 -2
v -7 13 -5
v 7 13 -5
v -7 13 -7
v 7 13 -7
v -8 14 8
v 8 14 8
v -7 14 7
v 7 14 7
v -7 14 -7
v 7 14 -7
v -8 14 -8
v 8 14 -8

# faces
f 7/1/1 2/1/1 1/1/1
f 8/1/1 2/1/1 7/1/1
f 9/1/1 2/1/1 8/1/1
f 10/2/1 3/2/1 2/2/1
f 10/1/1 2/1/1 9/1/1
f 11/1/1 4/1/1 3/1/1
f 11/2/1 3/2/1 10/2/1
f 12/2/1 5/2/1 4/2/1
f 12/1/1 4/1/1 11/1/1
f 13/1/1 6/1/1 5/1/1
f 13/2/1 5/2/1 12/2/1
f 14/1/1 6/1/1 13/1/1
f 15/1/1 6/1/1 14/1/1
f 16/1/1 6/1/1 15/1/1
f 17/1/1 9/1/1 8/1/1
f 18/1/1 9/1/1 17/1/1
f 19/1/1 15/1/1 14/1/1
f 20/1/1 15/1/1 19/1/1
f 21/2/1 18/2/1 17/2/1
f 22/2/1 18/2/1 21/2/1
f 23/2/1 20/2/1 19/2/1
f 24/2/1 20/2/1 23/2/1
f 25/1/1 22/1/1 21/1/1
f 26/1/1 22/1/1 25/1/1
f 27/1/1 24/1/1 23/1/1
f 28/1/1 24/1/1 27/1/1
f 29/2/1 26/2/1 25/2/1
f 30/2/1 26/2/1 29/2/1
f 31/2/1 28/2/1 27/2/1
f 32/2/1 28/2/1 31/2/1
f 34/1/1 30/1/1 29/1/1
f 35/1/1 30/1/1 34/1/1
f 36/1/1 32/1/1 31/1/1
f 37/1/1 32/1/1 36/1/1
f 39/1/1 37/1/1 36/1/1
f 39/1/1 38/1/1 37/1/1
f 39/1/1 36/1/1 35/1/1
f 39/1/1 35/1/1 34/1/1
f 39/1/1 34/1/1 33/1/1
f 40/1/1 38/1/1 39/1/1
f 51/1/1 42/1/1 41/1/1
f 52/1/1 44/1/1 43/1/1
f 53/1/1 48/1/1 47/1/1
f 54/1/1 50/1/1 49/1/1
f 55/1/1 51/1/1 41/1/1
f 56/1/1 44/1/1 52/1/1
f 57/1/1 53/1/1 47/1/1
f 58/1/1 50/1/1 54/1/1
f 59/1/1 55/1/1 41/1/1
f 60/1/1 44/1/1 56/1/1
f 61/1/1 57/1/1 47/1/1
f 62/1/1 50/1/1 58/1/1
f 63/1/1 59/1/1 41/1/1
f 64/1/1 44/1/1 60/1/1
f 65/1/1 61/1/1 47/1/1
f 66/1/1 50/1/1 62/1/1
f 67/1/1 63/1/1 41/1/1
f 68/1/1 63/1/1 67/1/1
f 69/1/1 44/1/1 64/1/1
f 70/2/1 45/2/1 44/2/1
f 70/1/1 44/1/1 69/1/1
f 71/1/1 46/1/1 45/1/1
f 71/2/1 45/2/1 70/2/1
f 72/2/1 47/2/1 46/2/1
f 72/1/1 46/1/1 71/1/1
f 73/1/1 65/1/1 47/1/1
f 73/2/1 47/2/1 72/2/1
f 74/1/1 65/1/1 73/1/1
f 75/1/1 50/1/1 66/1/1
f 76/1/1 50/1/1 75/1/1
f 81/1/1 78/1/1 77/1/1
f 82/1/1 80/1/1 79/1/1
f 83/1/1 81/1/1 77/1/1
f 84/1/1 80/1/1 82/1/1
f 85/1/1 83/1/1 77/1/1
f 86/1/1 80/1/1 84/1/1
f 87/1/1 85/1/1 77/1/1
f 88/1/1 80/1/1 86/1/1
f 89/1/1 87/1/1 77/1/1
f 90/1/1 87/1/1 89/1/1
f 91/1/1 80/1/1 88/1/1
f 92/1/1 80/1/1 91/1/1
f 99/1/1 94/1/1 93/1/1
f 99/1/1 98/1/1 97/1/1
f 99/1/1 97/1/1 96/1/1
f 99/1/1 96/1/1 95/1/1
f 99/1/1 95/1/1 94/1/1
f 100/1/1 98/1/1 99/1/1
f 101/1/2 102/1/2 107/1/2
f 105/1/2 106/1/2 107/1/2
f 104/1/2 105/1/2 107/1/2
f 103/1/2 104/1/2 107/1/2
f 102/1/2 103/1/2 107/1/2
f 107/1/2 106/1/2 108/1/2
f 109/1/2 110/1/2 113/1/2
f 111/1/2 112/1/2 114/1/2
f 109/1/2 113/1/2 115/1/2
f 114/1/2 112/1/2 116/1/2
f 109/1/2 115/1/2 117/1/2
f 116/1/2 112/1/2 118/1/2
f 109/1/2 117/1/2 119/1/2
f 118/1/2 112/1/2 120/1/2
f 109/1/2 119/1/2 121/1/2
f 121/1/2 119/1/2 122/1/2
f 120/1/2 112/1/2 123/1/2
f 123/1/2 112/1/2 124/1/2
f 125/1/2 126/1/2 135/1/2
f 127/1/2 128/1/2 136/1/2
f 131/1/2 132/1/2 137/1/2
f 133/1/2 134/1/2 138/1/2
f 125/1/2 135/1/2 139/1/2
f 136/1/2 128/1/2 140/1/2
f 131/1/2 137/1/2 141/1/2
f 138/1/2 134/1/2 142/1/2
f 125/1/2 139/1/2 143/1/2
f 140/1/2 128/1/2 144/1/2
f 131/1/2 141/1/2 145/1/2
f 142/1/2 134/1/2 146/1/2
f 125/1/2 143/1/2 147/1/2
f 144/1/2 128/1/2 148/1/2
f 131/1/2 145/1/2 149/1/2
f 146/1/2 134/1/2 150/1/2
f 125/1/2 147/1/2 151/1/2
f 151/1/2 147/1/2 152/1/2
f 148/1/2 128/1/2 153/1/2
f 128/2/2 129/2/2 154/2/2
f 153/1/2 128/1/2 154/1/2
f 129/1/2 130/1/2 155/1/2
f 154/2/2 129/2/2 155/2/2
f 130/2/2 131/2/2 156/2/2
f 155/1/2 130/1/2 156/1/2
f 131/1/2 149/1/2 157/1/2
f 156/2/2 131/2/2 157/2/2
f 157/1/2 149/1/2 158/1/2
f 150/1/2 134/1/2 159/1/2
f 159/1/2 134/1/2 160/1/2
f 161/1/2 162/1/2 167/1/2
f 167/1/2 162/1/2 168/1/2
f 168/1/2 162/1/2 169/1/2
f 162/2/2 163/2/2 170/2/2
f 169/1/2 162/1/2 170/1/2
f 163/1/2 164/1/2 171/1/2
f 170/2/2 163/2/2 171/2/2
f 164/2/2 165/2/2 172/2/2
f 171/1/2 164/1/2 172/1/2
f 165/1/2 166/1/2 173/1/2
f 172/2/2 165/2/2 173/2/2
f 173/1/2 166/1/2 174/1/2
f 174/1/2 166/1/2 175/1/2
f 175/1/2 166/1/2 176/1/2
f 168/1/2 169/1/2 177/1/2
f 177/1/2 169/1/2 178/1/2
f 174/1/2 175/1/2 179/1/2
f 179/1/2 175/1/2 180/1/2
f 177/2/2 178/2/2 181/2/2
f 181/2/2 178/2/2 182/2/2
f 179/2/2 180/2/2 183/2/2
f 183/2/2 180/2/2 184/2/2
f 181/1/2 182/1/2 185/1/2
f 185/1/2 182/1/2 186/1/2
f 183/1/2 184/1/2 187/1/2
f 187/1/2 184/1/2 188/1/2
f 185/2/2 186/2/2 189/2/2
f 189/2/2 186/2/2 190/2/2
f 187/2/2 188/2/2 191/2/2
f 191/2/2 188/2/2 192/2/2
f 189/1/2 190/1/2 194/1/2
f 194/1/2 190/1/2 195/1/2
f 191/1/2 192/1/2 196/1/2
f 196/1/2 192/1/2 197/1/2
f 196/1/2 197/1/2 199/1/2
f 197/1/2 198/1/2 199/1/2
f 195/1/2 196/1/2 199/1/2
f 194/1/2 195/1/2 199/1/2
f 193/1/2 194/1/2 199/1/2
f 199/1/2 198/1/2 200/1/2
f 205/1/3 202/1/3 201/1/3
f 206/1/3 204/1/3 203/1/3
f 207/1/3 205/1/3 201/1/3
f 207/1/3 206/1/3 205/1/3
f 208/1/3 204/1/3 206/1/3
f 208/1/3 206/1/3 207/1/3
f 209/1/3 207/1/3 201/1/3
f 210/1/3 204/1/3 208/1/3
f 211/1/3 209/1/3 201/1/3
f 211/1/3 210/1/3 209/1/3
f 212/1/3 204/1/3 210/1/3
f 212/1/3 210/1/3 211/1/3
f 213/1/3 211/1/3 201/1/3
f 214/1/3 211/1/3 213/1/3
f 215/1/3 204/1/3 212/1/3
f 216/1/3 204/1/3 215/1/3
f 223/1/3 218/1/3 217/1/3
f 224/2/3 219/2/3 218/2/3
f 224/1/3 218/1/3 223/1/3
f 225/1/3 220/1/3 219/1/3
f 225/2/3 219/2/3 224/2/3
f 226/2/3 221/2/3 220/2/3
f 226/1/3 220/1/3 225/1/3
f 227/1/3 222/1/3 221/1/3
f 227/2/3 221/2/3 226/2/3
f 228/1/3 222/1/3 227/1/3
f 235/1/3 230/1/3 229/1/3
f 236/2/3 231/2/3 230/2/3
f 236/1/3 230/1/3 235/1/3
f 237/1/3 232/1/3 231/1/3
f 237/2/3 231/2/3 236/2/3
f 238/2/3 233/2/3 232/2/3
f 238/1/3 232/1/3 237/1/3
f 239/1/3 234/1/3 233/1/3
f 239/2/3 233/2/3 238/2/3
f 240/1/3 234/1/3 239/1/3
f 247/1/3 242/1/3 241/1/3
f 248/2/3 243/2/3 242/2/3
f 248/1/3 242/1/3 247/1/3
f 249/1/3 244/1/3 243/1/3
f 249/2/3 243/2/3 248/2/3
f 250/2/3 245/2/3 244/2/3
f 250/1/3 244/1/3 249/1/3
f 251/1/3 246/1/3 245/1/3
f 251/2/3 245/2/3 250/2/3
f 252/1/3 246/1/3 251/1/3
f 259/1/3 254/1/3 253/1/3
f 260/2/3 255/2/3 254/2/3
f 260/1/3 254/1/3 259/1/3
f 261/1/3 256/1/3 255/1/3
f 261/2/3 255/2/3 260/2/3
f 262/2/3 257/2/3 256/2/3
f 262/1/3 256/1/3 261/1/3
f 263/1/3 258/1/3 257/1/3
f 263/2/3 257/2/3 262/2/3
f 264/1/3 258/1/3 263/1/3
f 271/1/3 266/1/3 265/1/3
f 272/2/3 267/2/3 266/2/3
f 272/1/3 266/1/3 271/1/3
f 273/1/3 268/1/3 267/1/3
f 273/2/3 267/2/3 272/2/3
f 274/2/3 269/2/3 268/2/3
f 274/1/3 268/1/3 273/1/3
f 275/1/3 270/1/3 269/1/3
f 275/2/3 269/2/3 274/2/3
f 276/1/3 270/1/3 275/1/3
f 279/1/3 278/1/3 277/1/3
f 280/1/3 278/1/3 279/1/3
f 281/1/4 282/1/4 283/1/4
f 283/1/4 282/1/4 284/1/4
f 285/1/4 286/1/4 291/1/4
f 286/2/4 287/2/4 292/2/4
f 291/1/4 286/1/4 292/1/4
f 287/1/4 288/1/4 293/1/4
f 292/2/4 287/2/4 293/2/4
f 288/2/4 289/2/4 294/2/4
f 293/1/4 288/1/4 294/1/4
f 289/1/4 290/1/4 295/1/4
f 294/2/4 289/2/4 295/2/4
f 295/1/4 290/1/4 296/1/4
f 297/1/4 298/1/4 303/1/4
f 298/2/4 299/2/4 304/2/4
f 303/1/4 298/1/4 304/1/4
f 299/1/4 300/1/4 305/1/4
f 304/2/4 299/2/4 305/2/4
f 300/2/4 301/2/4 306/2/4
f 305/1/4 300/1/4 306/1/4
f 301/1/4 302/1/4 307/1/4
f 306/2/4 301/2/4 307/2/4
f 307/1/4 302/1/4 308/1/4
f 309/1/4 310/1/4 315/1/4
f 310/2/4 311/2/4 316/2/4
f 315/1/4 310/1/4 316/1/4
f 311/1/4 312/1/4 317/1/4
f 316/2/4 311/2/4 317/2/4
f 312/2/4 313/2/4 318/2/4
f 317/1/4 312/1/4 318/1/4
f 313/1/4 314/1/4 319/1/4
f 318/2/4 313/2/4 319/2/4
f 319/1/4 314/1/4 320/1/4
f 321/1/4 322/1/4 327/1/4
f 322/2/4 323/2/4 328/2/4
f 327/1/4 322/1/4 328/1/4
f 323/1/4 324/1/4 329/1/4
f 328/2/4 323/2/4 329/2/4
f 324/2/4 325/2/4 330/2/4
f 329/1/4 324/1/4 330/1/4
f 325/1/4 326/1/4 331/1/4
f 330/2/4 325/2/4 331/2/4
f 331/1/4 326/1/4 332/1/4
f 333/1/4 334/1/4 339/1/4
f 334/2/4 335/2/4 340/2/4
f 339/1/4 334/1/4 340/1/4
f 335/1/4 336/1/4 341/1/4
f 340/2/4 335/2/4 341/2/4
f 336/2/4 337/2/4 342/2/4
f 341/1/4 336/1/4 342/1/4
f 337/1/4 338/1/4 343/1/4
f 342/2/4 337/2/4 343/2/4
f 343/1/4 338/1/4 344/1/4
f 345/1/4 346/1/4 349/1/4
f 347/1/4 348/1/4 350/1/4
f 345/1/4 349/1/4 351/1/4
f 349/1/4 350/1/4 351/1/4
f 350/1/4 348/1/4 352/1/4
f 351/1/4 350/1/4 352/1/4
f 345/1/4 351/1/4 353/1/4
f 352/1/4 348/1/4 354/1/4
f 345/1/4 353/1/4 355/1/4
f 353/1/4 354/1/4 355/1/4
f 354/1/4 348/1/4 356/1/4
f 355/1/4 354/1/4 356/1/4
f 345/1/4 355/1/4 357/1/4
f 357/1/4 355/1/4 358/1/4
f 356/1/4 348/1/4 359/1/4
f 359/1/4 348/1/4 360/1/4
f 363/1/5 362/1/5 361/1/5
f 364/1/5 362/1/5 363/1/5
f 365/2/5 364/2/5 363/2/5
f 366/2/5 364/2/5 365/2/5
f 367/1/5 366/1/5 365/1/5
f 368/1/5 366/1/5 367/1/5
f 369/2/5 368/2/5 367/2/5
f 370/2/5 368/2/5 369/2/5
f 371/1/5 370/1/5 369/1/5
f 372/1/5 370/1/5 371/1/5
f 379/1/5 374/1/5 373/1/5
f 380/1/5 374/1/5 379/1/5
f 381/1/5 376/1/5 375/1/5
f 382/1/5 376/1/5 381/1/5
f 383/1/5 378/1/5 377/1/5
f 384/1/5 378/1/5 383/1/5
f 389/1/5 386/1/5 385/1/5
f 390/1/5 388/1/5 387/1/5
f 391/1/5 389/1/5 385/1/5
f 392/1/5 388/1/5 390/1/5
f 393/1/5 391/1/5 385/1/5
f 394/1/5 388/1/5 392/1/5
f 395/1/5 393/1/5 385/1/5
f 396/1/5 388/1/5 394/1/5
f 397/1/5 395/1/5 385/1/5
f 398/1/5 395/1/5 397/1/5
f 399/1/5 388/1/5 396/1/5
f 400/1/5 388/1/5 399/1/5
f 407/1/5 402/1/5 401/1/5
f 408/1/5 402/1/5 407/1/5
f 409/1/5 404/1/5 403/1/5
f 410/1/5 404/1/5 409/1/5
f 411/1/5 406/1/5 405/1/5
f 412/1/5 406/1/5 411/1/5
f 413/1/6 414/1/6 419/1/6
f 419/1/6 414/1/6 420/1/6
f 415/1/6 416/1/6 421/1/6
f 421/1/6 416/1/6 422/1/6
f 417/1/6 418/1/6 423/1/6
f 423/1/6 418/1/6 424/1/6
f 425/1/6 426/1/6 429/1/6
f 429/1/6 426/1/6 430/1/6
f 427/1/6 428/1/6 431/1/6
f 431/1/6 428/1/6 432/1/6
f 429/2/6 430/2/6 433/2/6
f 433/2/6 430/2/6 434/2/6
f 431/2/6 432/2/6 435/2/6
f 435/2/6 432/2/6 436/2/6
f 433/1/6 434/1/6 437/1/6
f 437/1/6 434/1/6 438/1/6
f 435/1/6 436/1/6 439/1/6
f 439/1/6 436/1/6 440/1/6
f 437/2/6 438/2/6 441/2/6
f 441/2/6 438/2/6 442/2/6
f 439/2/6 440/2/6 443/2/6
f 443/2/6 440/2/6 444/2/6
f 441/1/6 442/1/6 445/1/6
f 445/1/6 442/1/6 446/1/6
f 443/1/6 444/1/6 447/1/6
f 447/1/6 444/1/6 448/1/6
f 449/1/6 450/1/6 455/1/6
f 455/1/6 450/1/6 456/1/6
f 451/1/6 452/1/6 457/1/6
f 457/1/6 452/1/6 458/1/6
f 453/1/6 454/1/6 459/1/6
f 459/1/6 454/1/6 460/1/6
f 461/1/6 462/1/6 463/1/6
f 463/1/6 462/1/6 464/1/6
f 463/2/6 464/2/6 465/2/6
f 465/2/6 464/2/6 466/2/6
f 465/1/6 466/1/6 467/1/6
f 467/1/6 466/1/6 468/1/6
f 467/2/6 468/2/6 469/2/6
f 469/2/6 468/2/6 470/2/6
f 469/1/6 470/1/6 471/1/6
f 471/1/6 470/1/6 472/1/6
f 473/1/6 474/1/6 475/1/6
f 475/1/6 474/1/6 476/1/6
f 473/1/6 475/1/6 477/1/6
f 476/1/6 474/1/6 478/1/6
f 473/1/6 477/1/6 479/1/6
f 477/1/6 478/1/6 479/1/6
f 478/1/6 474/1/6 480/1/6
f 479/1/6 478/1/6 480/1/6
