# MagicaVoxel @ Ephtracy

# material
mtllib greenpad.mtl
usemtl palette

# normals
vn -1 0 0
vn 1 0 0
vn 0 0 1
vn 0 0 -1
vn 0 -1 0
vn 0 1 0

# texcoords
vt 0.0488281 0.5
vt 0.0683594 0.5
vt 0.107422 0.5
vt 0.119141 0.5

# verts
v -10 0 10
v -10 0 -10
v -10 2 9
v -10 2 7
v -10 2 -7
v -10 2 -9
v -10 3 9
v -10 3 7
v -10 3 -7
v -10 3 -9
v -10 4 7
v -10 4 3
v -10 4 -3
v -10 4 -7
v -10 5 3
v -10 5 -3
v -10 7 9
v -10 7 5
v -10 7 -5
v -10 7 -9
v -10 8 9
v -10 8 6
v -10 8 5
v -10 8 4
v -10 8 -4
v -10 8 -5
v -10 8 -6
v -10 8 -9
v -10 9 6
v -10 9 5
v -10 9 4
v -10 9 -4
v -10 9 -5
v -10 9 -6
v -10 10 5
v -10 10 1
v -10 10 -1
v -10 10 -5
v -10 11 1
v -10 11 -1
v -10 13 10
v -10 13 -10
v -10 14 10
v -10 14 2
v -10 14 -2
v -10 14 -10
v -10 16 -1
v -10 16 -2
v -10 17 2
v -10 17 -1
v -10 17 -2
v -9 14 5
v -9 14 2
v -9 14 -2
v -9 14 -5
v -9 16 -2
v -9 17 5
v -9 17 2
v -9 17 -2
v -9 17 -5
v -8 14 8
v -8 14 5
v -8 14 -5
v -8 14 -8
v -8 17 8
v -8 17 5
v -8 17 -5
v -8 17 -8
v -5 14 9
v -5 14 8
v -5 14 -8
v -5 14 -9
v -5 16 -8
v -5 16 -9
v -5 17 9
v -5 17 8
v -5 17 -8
v -5 17 -9
v -2 14 10
v -2 14 9
v -2 14 -9
v -2 14 -10
v -2 17 10
v -2 17 9
v -2 17 -9
v -2 17 -10
v 2 14 10
v 2 14 9
v 2 14 -9
v 2 14 -10
v 2 17 10
v 2 17 9
v 2 17 -9
v 2 17 -10
v 5 14 9
v 5 14 8
v 5 14 -8
v 5 14 -9
v 5 16 9
v 5 16 8
v 5 17 9
v 5 17 8
v 5 17 -8
v 5 17 -9
v 8 14 8
v 8 14 5
v 8 14 -5
v 8 14 -8
v 8 17 8
v 8 17 5
v 8 17 -5
v 8 17 -8
v 9 14 5
v 9 14 2
v 9 14 -2
v 9 14 -5
v 9 16 2
v 9 17 5
v 9 17 2
v 9 17 -2
v 9 17 -5
v 10 0 10
v 10 0 -10
v 10 2 9
v 10 2 7
v 10 2 -7
v 10 2 -9
v 10 3 9
v 10 3 7
v 10 3 -7
v 10 3 -9
v 10 4 7
v 10 4 3
v 10 4 -3
v 10 4 -7
v 10 5 3
v 10 5 -3
v 10 7 9
v 10 7 5
v 10 7 -5
v 10 7 -9
v 10 8 9
v 10 8 6
v 10 8 5
v 10 8 4
v 10 8 -4
v 10 8 -5
v 10 8 -6
v 10 8 -9
v 10 9 6
v 10 9 5
v 10 9 4
v 10 9 -4
v 10 9 -5
v 10 9 -6
v 10 10 5
v 10 10 1
v 10 10 -1
v 10 10 -5
v 10 11 1
v 10 11 -1
v 10 13 10
v 10 13 -10
v 10 14 10
v 10 14 2
v 10 14 -2
v 10 14 -10
v 10 16 2
v 10 16 1
v 10 17 2
v 10 17 1
v 10 17 -2
v -10 0 10
v -10 13 10
v -10 14 10
v -9 1 10
v -9 2 10
v -9 7 10
v -9 8 10
v -5 2 10
v -5 3 10
v -5 7 10
v -5 8 10
v -5 9 10
v -4 1 10
v -4 2 10
v -3 3 10
v -3 4 10
v -2 2 10
v -2 3 10
v -2 9 10
v -2 10 10
v -2 14 10
v -2 17 10
v -1 4 10
v -1 5 10
v -1 8 10
v -1 9 10
v 1 4 10
v 1 5 10
v 1 8 10
v 1 9 10
v 2 2 10
v 2 3 10
v 2 9 10
v 2 10 10
v 2 14 10
v 2 17 10
v 3 3 10
v 3 4 10
v 4 1 10
v 4 2 10
v 5 2 10
v 5 3 10
v 5 7 10
v 5 8 10
v 5 9 10
v 9 1 10
v 9 2 10
v 9 7 10
v 9 8 10
v 10 0 10
v 10 13 10
v 10 14 10
v -5 14 9
v -5 17 9
v -2 14 9
v -2 17 9
v 2 14 9
v 2 17 9
v 4 16 9
v 4 17 9
v 5 14 9
v 5 16 9
v 5 17 9
v -8 14 8
v -8 17 8
v -5 14 8
v -5 17 8
v 5 14 8
v 5 16 8
v 5 17 8
v 8 14 8
v 8 17 8
v -9 14 5
v -9 17 5
v -8 14 5
v -8 17 5
v 8 14 5
v 8 17 5
v 9 14 5
v 9 17 5
v -10 14 2
v -10 17 2
v -9 14 2
v -9 17 2
v 9 14 2
v 9 16 2
v 9 17 2
v 10 14 2
v 10 16 2
v 10 17 2
v -10 14 -2
v -10 16 -2
v -10 17 -2
v -9 14 -2
v -9 16 -2
v -9 17 -2
v 9 14 -2
v 9 17 -2
v 10 14 -2
v 10 17 -2
v -9 14 -5
v -9 17 -5
v -8 14 -5
v -8 17 -5
v 8 14 -5
v 8 17 -5
v 9 14 -5
v 9 17 -5
v -8 14 -8
v -8 17 -8
v -5 14 -8
v -5 16 -8
v -5 17 -8
v 5 14 -8
v 5 17 -8
v 8 14 -8
v 8 17 -8
v -5 14 -9
v -5 16 -9
v -5 17 -9
v -4 16 -9
v -4 17 -9
v -2 14 -9
v -2 17 -9
v 2 14 -9
v 2 17 -9
v 5 14 -9
v 5 17 -9
v -10 0 -10
v -10 13 -10
v -10 14 -10
v -9 1 -10
v -9 2 -10
v -9 7 -10
v -9 8 -10
v -5 2 -10
v -5 3 -10
v -5 7 -10
v -5 8 -10
v -5 9 -10
v -4 1 -10
v -4 2 -10
v -3 3 -10
v -3 4 -10
v -2 2 -10
v -2 3 -10
v -2 9 -10
v -2 10 -10
v -2 14 -10
v -2 17 -10
v -1 4 -10
v -1 5 -10
v -1 8 -10
v -1 9 -10
v 1 4 -10
v 1 5 -10
v 1 8 -10
v 1 9 -10
v 2 2 -10
v 2 3 -10
v 2 9 -10
v 2 10 -10
v 2 14 -10
v 2 17 -10
v 3 3 -10
v 3 4 -10
v 4 1 -10
v 4 2 -10
v 5 2 -10
v 5 3 -10
v 5 7 -10
v 5 8 -10
v 5 9 -10
v 9 1 -10
v 9 2 -10
v 9 7 -10
v 9 8 -10
v 10 0 -10
v 10 13 -10
v 10 14 -10
v -10 0 10
v 10 0 10
v -9 0 9
v 9 0 9
v -9 0 -9
v 9 0 -9
v -10 0 -10
v 10 0 -10
v -10 14 10
v -2 14 10
v 2 14 10
v 10 14 10
v -5 14 9
v -2 14 9
v 2 14 9
v 5 14 9
v -8 14 8
v -5 14 8
v 5 14 8
v 8 14 8
v -9 14 5
v -8 14 5
v 8 14 5
v 9 14 5
v -10 14 2
v -9 14 2
v 9 14 2
v 10 14 2
v -10 14 -2
v -9 14 -2
v 9 14 -2
v 10 14 -2
v -9 14 -5
v -8 14 -5
v 8 14 -5
v 9 14 -5
v -8 14 -8
v -5 14 -8
v 5 14 -8
v 8 14 -8
v -5 14 -9
v -2 14 -9
v 2 14 -9
v 5 14 -9
v -10 14 -10
v -2 14 -10
v 2 14 -10
v 10 14 -10
v -2 17 10
v 2 17 10
v -5 17 9
v -2 17 9
v 2 17 9
v 4 17 9
v 5 17 9
v -8 17 8
v -5 17 8
v 3 17 8
v 4 17 8
v 5 17 8
v 8 17 8
v 2 17 7
v 3 17 7
v 4 17 7
v 5 17 7
v 0 17 6
v 2 17 6
v 3 17 6
v 4 17 6
v -9 17 5
v -8 17 5
v -2 17 5
v 0 17 5
v 1 17 5
v 3 17 5
v 8 17 5
v 9 17 5
v -3 17 4
v -2 17 4
v -1 17 4
v 1 17 4
v -5 17 3
v -3 17 3
v -2 17 3
v -1 17 3
v -10 17 2
v -9 17 2
v -7 17 2
v -5 17 2
v -4 17 2
v -2 17 2
v 8 17 2
v 9 17 2
v 10 17 2
v -8 17 1
v -7 17 1
v -6 17 1
v -4 17 1
v 7 17 1
v 8 17 1
v 9 17 1
v 10 17 1
v -9 17 -0
v -8 17 -0
v -7 17 -0
v -6 17 -0
v 6 17 -0
v 7 17 -0
v 8 17 -0
v 9 17 -0
v -10 17 -1
v -9 17 -1
v -8 17 -1
v -7 17 -1
v 4 17 -1
v 6 17 -1
v 7 17 -1
v 8 17 -1
v -10 17 -2
v -9 17 -2
v -8 17 -2
v 2 17 -2
v 4 17 -2
v 5 17 -2
v 7 17 -2
v 9 17 -2
v 10 17 -2
v 1 17 -3
v 2 17 -3
v 3 17 -3
v 5 17 -3
v -1 17 -4
v 1 17 -4
v 2 17 -4
v 3 17 -4
v -9 17 -5
v -8 17 -5
v -3 17 -5
v -1 17 -5
v 0 17 -5
v 2 17 -5
v 8 17 -5
v 9 17 -5
v -4 17 -6
v -3 17 -6
v -2 17 -6
v 0 17 -6
v -5 17 -7
v -4 17 -7
v -3 17 -7
v -2 17 -7
v -8 17 -8
v -5 17 -8
v -4 17 -8
v -3 17 -8
v 5 17 -8
v 8 17 -8
v -5 17 -9
v -4 17 -9
v -2 17 -9
v 2 17 -9
v 5 17 -9
v -2 17 -10
v 2 17 -10

# faces
f 3/2/1 2/2/1 1/2/1
f 4/2/1 2/2/1 3/2/1
f 5/2/1 2/2/1 4/2/1
f 6/2/1 2/2/1 5/2/1
f 7/2/1 3/2/1 1/2/1
f 7/1/1 4/1/1 3/1/1
f 8/2/1 5/2/1 4/2/1
f 8/1/1 4/1/1 7/1/1
f 9/1/1 6/1/1 5/1/1
f 9/2/1 5/2/1 8/2/1
f 10/2/1 2/2/1 6/2/1
f 10/1/1 6/1/1 9/1/1
f 11/1/1 9/1/1 8/1/1
f 11/2/1 8/2/1 7/2/1
f 12/1/1 9/1/1 11/1/1
f 13/1/1 9/1/1 12/1/1
f 14/2/1 10/2/1 9/2/1
f 14/1/1 9/1/1 13/1/1
f 15/1/1 13/1/1 12/1/1
f 15/2/1 12/2/1 11/2/1
f 16/2/1 14/2/1 13/2/1
f 16/1/1 13/1/1 15/1/1
f 17/2/1 7/2/1 1/2/1
f 17/2/1 11/2/1 7/2/1
f 17/2/1 16/2/1 15/2/1
f 17/2/1 15/2/1 11/2/1
f 18/2/1 16/2/1 17/2/1
f 19/2/1 14/2/1 16/2/1
f 19/2/1 16/2/1 18/2/1
f 20/2/1 2/2/1 10/2/1
f 20/2/1 14/2/1 19/2/1
f 20/2/1 10/2/1 14/2/1
f 21/2/1 17/2/1 1/2/1
f 21/1/1 18/1/1 17/1/1
f 22/1/1 18/1/1 21/1/1
f 23/2/1 19/2/1 18/2/1
f 23/1/1 18/1/1 22/1/1
f 24/2/1 19/2/1 23/2/1
f 25/2/1 19/2/1 24/2/1
f 26/1/1 20/1/1 19/1/1
f 26/2/1 19/2/1 25/2/1
f 27/1/1 20/1/1 26/1/1
f 28/2/1 2/2/1 20/2/1
f 28/1/1 20/1/1 27/1/1
f 29/2/1 22/2/1 21/2/1
f 29/1/1 23/1/1 22/1/1
f 29/1/1 24/1/1 23/1/1
f 30/1/1 24/1/1 29/1/1
f 31/2/1 25/2/1 24/2/1
f 31/1/1 24/1/1 30/1/1
f 32/1/1 27/1/1 26/1/1
f 32/2/1 25/2/1 31/2/1
f 32/1/1 26/1/1 25/1/1
f 33/1/1 27/1/1 32/1/1
f 34/2/1 28/2/1 27/2/1
f 34/1/1 27/1/1 33/1/1
f 35/1/1 31/1/1 30/1/1
f 35/2/1 30/2/1 29/2/1
f 35/1/1 33/1/1 32/1/1
f 35/1/1 32/1/1 31/1/1
f 36/1/1 33/1/1 35/1/1
f 37/1/1 33/1/1 36/1/1
f 38/2/1 34/2/1 33/2/1
f 38/1/1 33/1/1 37/1/1
f 39/1/1 37/1/1 36/1/1
f 39/2/1 36/2/1 35/2/1
f 40/2/1 38/2/1 37/2/1
f 40/1/1 37/1/1 39/1/1
f 41/2/1 21/2/1 1/2/1
f 41/2/1 29/2/1 21/2/1
f 41/2/1 40/2/1 39/2/1
f 41/2/1 39/2/1 35/2/1
f 41/2/1 35/2/1 29/2/1
f 42/2/1 2/2/1 28/2/1
f 42/2/1 40/2/1 41/2/1
f 42/2/1 28/2/1 34/2/1
f 42/2/1 38/2/1 40/2/1
f 42/2/1 34/2/1 38/2/1
f 43/1/1 42/1/1 41/1/1
f 44/1/1 42/1/1 43/1/1
f 45/1/1 42/1/1 44/1/1
f 46/1/1 42/1/1 45/1/1
f 47/4/1 45/4/1 44/4/1
f 48/4/1 45/4/1 47/4/1
f 49/4/1 47/4/1 44/4/1
f 50/3/1 48/3/1 47/3/1
f 50/4/1 47/4/1 49/4/1
f 51/3/1 48/3/1 50/3/1
f 56/4/1 55/4/1 54/4/1
f 57/4/1 53/4/1 52/4/1
f 58/4/1 53/4/1 57/4/1
f 59/4/1 55/4/1 56/4/1
f 60/4/1 55/4/1 59/4/1
f 65/4/1 62/4/1 61/4/1
f 66/4/1 62/4/1 65/4/1
f 67/4/1 64/4/1 63/4/1
f 68/4/1 64/4/1 67/4/1
f 73/4/1 72/4/1 71/4/1
f 74/4/1 72/4/1 73/4/1
f 75/4/1 70/4/1 69/4/1
f 76/4/1 70/4/1 75/4/1
f 77/3/1 74/3/1 73/3/1
f 78/3/1 74/3/1 77/3/1
f 83/4/1 80/4/1 79/4/1
f 84/4/1 80/4/1 83/4/1
f 85/4/1 82/4/1 81/4/1
f 86/4/1 82/4/1 85/4/1
f 87/4/2 88/4/2 91/4/2
f 91/4/2 88/4/2 92/4/2
f 89/4/2 90/4/2 93/4/2
f 93/4/2 90/4/2 94/4/2
f 95/4/2 96/4/2 99/4/2
f 99/4/2 96/4/2 100/4/2
f 99/3/2 100/3/2 101/3/2
f 101/3/2 100/3/2 102/3/2
f 97/4/2 98/4/2 103/4/2
f 103/4/2 98/4/2 104/4/2
f 105/4/2 106/4/2 109/4/2
f 109/4/2 106/4/2 110/4/2
f 107/4/2 108/4/2 111/4/2
f 111/4/2 108/4/2 112/4/2
f 113/4/2 114/4/2 117/4/2
f 113/4/2 117/4/2 118/4/2
f 118/4/2 117/4/2 119/4/2
f 115/4/2 116/4/2 120/4/2
f 120/4/2 116/4/2 121/4/2
f 122/2/2 123/2/2 124/2/2
f 124/2/2 123/2/2 125/2/2
f 125/2/2 123/2/2 126/2/2
f 126/2/2 123/2/2 127/2/2
f 122/2/2 124/2/2 128/2/2
f 124/1/2 125/1/2 128/1/2
f 125/2/2 126/2/2 129/2/2
f 128/1/2 125/1/2 129/1/2
f 126/1/2 127/1/2 130/1/2
f 129/2/2 126/2/2 130/2/2
f 127/2/2 123/2/2 131/2/2
f 130/1/2 127/1/2 131/1/2
f 129/1/2 130/1/2 132/1/2
f 128/2/2 129/2/2 132/2/2
f 132/1/2 130/1/2 133/1/2
f 133/1/2 130/1/2 134/1/2
f 130/2/2 131/2/2 135/2/2
f 134/1/2 130/1/2 135/1/2
f 133/1/2 134/1/2 136/1/2
f 132/2/2 133/2/2 136/2/2
f 134/2/2 135/2/2 137/2/2
f 136/1/2 134/1/2 137/1/2
f 122/2/2 128/2/2 138/2/2
f 128/2/2 132/2/2 138/2/2
f 136/2/2 137/2/2 138/2/2
f 132/2/2 136/2/2 138/2/2
f 138/2/2 137/2/2 139/2/2
f 137/2/2 135/2/2 140/2/2
f 139/2/2 137/2/2 140/2/2
f 131/2/2 123/2/2 141/2/2
f 140/2/2 135/2/2 141/2/2
f 135/2/2 131/2/2 141/2/2
f 122/2/2 138/2/2 142/2/2
f 138/1/2 139/1/2 142/1/2
f 142/1/2 139/1/2 143/1/2
f 139/2/2 140/2/2 144/2/2
f 143/1/2 139/1/2 144/1/2
f 144/2/2 140/2/2 145/2/2
f 145/2/2 140/2/2 146/2/2
f 140/1/2 141/1/2 147/1/2
f 146/2/2 140/2/2 147/2/2
f 147/1/2 141/1/2 148/1/2
f 141/2/2 123/2/2 149/2/2
f 148/1/2 141/1/2 149/1/2
f 142/2/2 143/2/2 150/2/2
f 143/1/2 144/1/2 150/1/2
f 144/1/2 145/1/2 150/1/2
f 150/1/2 145/1/2 151/1/2
f 145/2/2 146/2/2 152/2/2
f 151/1/2 145/1/2 152/1/2
f 147/1/2 148/1/2 153/1/2
f 152/2/2 146/2/2 153/2/2
f 146/1/2 147/1/2 153/1/2
f 153/1/2 148/1/2 154/1/2
f 148/2/2 149/2/2 155/2/2
f 154/1/2 148/1/2 155/1/2
f 151/1/2 152/1/2 156/1/2
f 150/2/2 151/2/2 156/2/2
f 153/1/2 154/1/2 156/1/2
f 152/1/2 153/1/2 156/1/2
f 156/1/2 154/1/2 157/1/2
f 157/1/2 154/1/2 158/1/2
f 154/2/2 155/2/2 159/2/2
f 158/1/2 154/1/2 159/1/2
f 157/1/2 158/1/2 160/1/2
f 156/2/2 157/2/2 160/2/2
f 158/2/2 159/2/2 161/2/2
f 160/1/2 158/1/2 161/1/2
f 122/2/2 142/2/2 162/2/2
f 142/2/2 150/2/2 162/2/2
f 160/2/2 161/2/2 162/2/2
f 156/2/2 160/2/2 162/2/2
f 150/2/2 156/2/2 162/2/2
f 149/2/2 123/2/2 163/2/2
f 162/2/2 161/2/2 163/2/2
f 155/2/2 149/2/2 163/2/2
f 161/2/2 159/2/2 163/2/2
f 159/2/2 155/2/2 163/2/2
f 162/1/2 163/1/2 164/1/2
f 164/1/2 163/1/2 165/1/2
f 165/1/2 163/1/2 166/1/2
f 166/1/2 163/1/2 167/1/2
f 165/4/2 166/4/2 168/4/2
f 168/4/2 166/4/2 169/4/2
f 168/3/2 169/3/2 170/3/2
f 169/4/2 166/4/2 171/4/2
f 170/3/2 169/3/2 171/3/2
f 171/4/2 166/4/2 172/4/2
f 176/2/3 174/2/3 173/2/3
f 177/2/3 174/2/3 176/2/3
f 178/2/3 174/2/3 177/2/3
f 179/2/3 174/2/3 178/2/3
f 180/1/3 177/1/3 176/1/3
f 180/2/3 178/2/3 177/2/3
f 181/2/3 178/2/3 180/2/3
f 182/1/3 179/1/3 178/1/3
f 182/2/3 178/2/3 181/2/3
f 183/2/3 174/2/3 179/2/3
f 183/1/3 179/1/3 182/1/3
f 184/2/3 174/2/3 183/2/3
f 185/2/3 176/2/3 173/2/3
f 185/1/3 181/1/3 180/1/3
f 185/1/3 180/1/3 176/1/3
f 186/1/3 181/1/3 185/1/3
f 187/2/3 182/2/3 181/2/3
f 187/1/3 181/1/3 186/1/3
f 187/2/3 183/2/3 182/2/3
f 188/2/3 183/2/3 187/2/3
f 189/2/3 186/2/3 185/2/3
f 189/1/3 187/1/3 186/1/3
f 189/1/3 188/1/3 187/1/3
f 190/1/3 188/1/3 189/1/3
f 191/2/3 174/2/3 184/2/3
f 191/1/3 184/1/3 183/1/3
f 192/2/3 174/2/3 191/2/3
f 193/1/3 175/1/3 174/1/3
f 195/1/3 188/1/3 190/1/3
f 195/2/3 183/2/3 188/2/3
f 196/2/3 183/2/3 195/2/3
f 197/1/3 191/1/3 183/1/3
f 197/2/3 183/2/3 196/2/3
f 197/1/3 192/1/3 191/1/3
f 198/1/3 192/1/3 197/1/3
f 199/1/3 196/1/3 195/1/3
f 199/1/3 195/1/3 190/1/3
f 200/2/3 198/2/3 197/2/3
f 200/1/3 196/1/3 199/1/3
f 200/2/3 197/2/3 196/2/3
f 201/2/3 198/2/3 200/2/3
f 202/1/3 192/1/3 198/1/3
f 202/2/3 198/2/3 201/2/3
f 203/2/3 190/2/3 189/2/3
f 203/2/3 189/2/3 185/2/3
f 204/1/3 199/1/3 190/1/3
f 204/2/3 190/2/3 203/2/3
f 205/1/3 192/1/3 202/1/3
f 205/1/3 202/1/3 201/1/3
f 206/2/3 174/2/3 192/2/3
f 206/1/3 192/1/3 205/1/3
f 207/4/3 194/4/3 193/4/3
f 207/1/3 193/1/3 174/1/3
f 208/4/3 194/4/3 207/4/3
f 209/1/3 199/1/3 204/1/3
f 209/1/3 204/1/3 203/1/3
f 210/2/3 201/2/3 200/2/3
f 210/1/3 199/1/3 209/1/3
f 210/2/3 200/2/3 199/2/3
f 211/2/3 185/2/3 173/2/3
f 211/2/3 203/2/3 185/2/3
f 212/1/3 209/1/3 203/1/3
f 212/2/3 203/2/3 211/2/3
f 213/1/3 212/1/3 211/1/3
f 213/1/3 209/1/3 212/1/3
f 214/2/3 210/2/3 209/2/3
f 214/1/3 209/1/3 213/1/3
f 215/2/3 201/2/3 210/2/3
f 215/2/3 210/2/3 214/2/3
f 216/1/3 205/1/3 201/1/3
f 216/2/3 201/2/3 215/2/3
f 217/2/3 206/2/3 205/2/3
f 217/1/3 205/1/3 216/1/3
f 218/2/3 211/2/3 173/2/3
f 218/1/3 213/1/3 211/1/3
f 219/2/3 215/2/3 214/2/3
f 219/1/3 213/1/3 218/1/3
f 219/2/3 214/2/3 213/2/3
f 220/1/3 216/1/3 215/1/3
f 220/2/3 215/2/3 219/2/3
f 221/2/3 217/2/3 216/2/3
f 221/1/3 216/1/3 220/1/3
f 222/2/3 218/2/3 173/2/3
f 222/2/3 219/2/3 218/2/3
f 222/2/3 221/2/3 220/2/3
f 222/2/3 220/2/3 219/2/3
f 223/2/3 217/2/3 221/2/3
f 223/2/3 221/2/3 222/2/3
f 223/2/3 174/2/3 206/2/3
f 223/1/3 207/1/3 174/1/3
f 223/2/3 206/2/3 217/2/3
f 224/1/3 207/1/3 223/1/3
f 227/4/3 226/4/3 225/4/3
f 228/4/3 226/4/3 227/4/3
f 231/4/3 230/4/3 229/4/3
f 232/4/3 230/4/3 231/4/3
f 233/4/3 231/4/3 229/4/3
f 234/3/3 232/3/3 231/3/3
f 234/4/3 231/4/3 233/4/3
f 235/3/3 232/3/3 234/3/3
f 238/4/3 237/4/3 236/4/3
f 239/4/3 237/4/3 238/4/3
f 243/4/3 241/4/3 240/4/3
f 243/4/3 242/4/3 241/4/3
f 244/4/3 242/4/3 243/4/3
f 247/4/3 246/4/3 245/4/3
f 248/4/3 246/4/3 247/4/3
f 251/4/3 250/4/3 249/4/3
f 252/4/3 250/4/3 251/4/3
f 255/4/3 254/4/3 253/4/3
f 256/4/3 254/4/3 255/4/3
f 260/4/3 258/4/3 257/4/3
f 261/3/3 259/3/3 258/3/3
f 261/4/3 258/4/3 260/4/3
f 262/3/3 259/3/3 261/3/3
f 263/4/4 264/4/4 266/4/4
f 264/3/4 265/3/4 267/3/4
f 266/4/4 264/4/4 267/4/4
f 267/3/4 265/3/4 268/3/4
f 269/4/4 270/4/4 271/4/4
f 271/4/4 270/4/4 272/4/4
f 273/4/4 274/4/4 275/4/4
f 275/4/4 274/4/4 276/4/4
f 277/4/4 278/4/4 279/4/4
f 279/4/4 278/4/4 280/4/4
f 281/4/4 282/4/4 283/4/4
f 283/4/4 282/4/4 284/4/4
f 284/4/4 282/4/4 285/4/4
f 286/4/4 287/4/4 288/4/4
f 288/4/4 287/4/4 289/4/4
f 290/4/4 291/4/4 293/4/4
f 291/3/4 292/3/4 293/3/4
f 293/3/4 292/3/4 294/3/4
f 290/4/4 293/4/4 295/4/4
f 293/4/4 294/4/4 295/4/4
f 295/4/4 294/4/4 296/4/4
f 297/4/4 298/4/4 299/4/4
f 299/4/4 298/4/4 300/4/4
f 301/2/4 302/2/4 304/2/4
f 304/2/4 302/2/4 305/2/4
f 305/2/4 302/2/4 306/2/4
f 306/2/4 302/2/4 307/2/4
f 304/1/4 305/1/4 308/1/4
f 305/2/4 306/2/4 308/2/4
f 308/2/4 306/2/4 309/2/4
f 306/1/4 307/1/4 310/1/4
f 309/2/4 306/2/4 310/2/4
f 307/2/4 302/2/4 311/2/4
f 310/1/4 307/1/4 311/1/4
f 311/2/4 302/2/4 312/2/4
f 301/2/4 304/2/4 313/2/4
f 308/1/4 309/1/4 313/1/4
f 304/1/4 308/1/4 313/1/4
f 313/1/4 309/1/4 314/1/4
f 309/2/4 310/2/4 315/2/4
f 314/1/4 309/1/4 315/1/4
f 310/2/4 311/2/4 315/2/4
f 315/2/4 311/2/4 316/2/4
f 313/2/4 314/2/4 317/2/4
f 314/1/4 315/1/4 317/1/4
f 315/1/4 316/1/4 317/1/4
f 317/1/4 316/1/4 318/1/4
f 312/2/4 302/2/4 319/2/4
f 311/1/4 312/1/4 319/1/4
f 319/2/4 302/2/4 320/2/4
f 302/1/4 303/1/4 321/1/4
f 318/1/4 316/1/4 323/1/4
f 316/2/4 311/2/4 323/2/4
f 323/2/4 311/2/4 324/2/4
f 311/1/4 319/1/4 325/1/4
f 324/2/4 311/2/4 325/2/4
f 319/1/4 320/1/4 325/1/4
f 325/1/4 320/1/4 326/1/4
f 323/1/4 324/1/4 327/1/4
f 318/1/4 323/1/4 327/1/4
f 325/2/4 326/2/4 328/2/4
f 327/1/4 324/1/4 328/1/4
f 324/2/4 325/2/4 328/2/4
f 328/2/4 326/2/4 329/2/4
f 326/1/4 320/1/4 330/1/4
f 329/2/4 326/2/4 330/2/4
f 317/2/4 318/2/4 331/2/4
f 313/2/4 317/2/4 331/2/4
f 318/1/4 327/1/4 332/1/4
f 331/2/4 318/2/4 332/2/4
f 330/1/4 320/1/4 333/1/4
f 329/1/4 330/1/4 333/1/4
f 320/2/4 302/2/4 334/2/4
f 333/1/4 320/1/4 334/1/4
f 321/4/4 322/4/4 335/4/4
f 302/1/4 321/1/4 335/1/4
f 335/4/4 322/4/4 336/4/4
f 332/1/4 327/1/4 337/1/4
f 331/1/4 332/1/4 337/1/4
f 328/2/4 329/2/4 338/2/4
f 337/1/4 327/1/4 338/1/4
f 327/2/4 328/2/4 338/2/4
f 301/2/4 313/2/4 339/2/4
f 313/2/4 331/2/4 339/2/4
f 331/1/4 337/1/4 340/1/4
f 339/2/4 331/2/4 340/2/4
f 339/1/4 340/1/4 341/1/4
f 340/1/4 337/1/4 341/1/4
f 337/2/4 338/2/4 342/2/4
f 341/1/4 337/1/4 342/1/4
f 338/2/4 329/2/4 343/2/4
f 342/2/4 338/2/4 343/2/4
f 329/1/4 333/1/4 344/1/4
f 343/2/4 329/2/4 344/2/4
f 333/2/4 334/2/4 345/2/4
f 344/1/4 333/1/4 345/1/4
f 301/2/4 339/2/4 346/2/4
f 339/1/4 341/1/4 346/1/4
f 342/2/4 343/2/4 347/2/4
f 346/1/4 341/1/4 347/1/4
f 341/2/4 342/2/4 347/2/4
f 343/1/4 344/1/4 348/1/4
f 347/2/4 343/2/4 348/2/4
f 344/2/4 345/2/4 349/2/4
f 348/1/4 344/1/4 349/1/4
f 301/2/4 346/2/4 350/2/4
f 346/2/4 347/2/4 350/2/4
f 348/2/4 349/2/4 350/2/4
f 347/2/4 348/2/4 350/2/4
f 349/2/4 345/2/4 351/2/4
f 350/2/4 349/2/4 351/2/4
f 334/2/4 302/2/4 351/2/4
f 302/1/4 335/1/4 351/1/4
f 345/2/4 334/2/4 351/2/4
f 351/1/4 335/1/4 352/1/4
f 355/2/5 354/2/5 353/2/5
f 356/2/5 354/2/5 355/2/5
f 357/2/5 355/2/5 353/2/5
f 357/1/5 356/1/5 355/1/5
f 358/2/5 354/2/5 356/2/5
f 358/1/5 356/1/5 357/1/5
f 359/2/5 357/2/5 353/2/5
f 359/2/5 358/2/5 357/2/5
f 360/2/5 354/2/5 358/2/5
f 360/2/5 358/2/5 359/2/5
f 361/1/6 362/1/6 365/1/6
f 365/1/6 362/1/6 366/1/6
f 363/1/6 364/1/6 367/1/6
f 367/1/6 364/1/6 368/1/6
f 361/1/6 365/1/6 369/1/6
f 369/1/6 365/1/6 370/1/6
f 368/1/6 364/1/6 371/1/6
f 371/1/6 364/1/6 372/1/6
f 361/1/6 369/1/6 373/1/6
f 373/1/6 369/1/6 374/1/6
f 372/1/6 364/1/6 375/1/6
f 375/1/6 364/1/6 376/1/6
f 361/1/6 373/1/6 377/1/6
f 377/1/6 373/1/6 378/1/6
f 376/1/6 364/1/6 379/1/6
f 379/1/6 364/1/6 380/1/6
f 381/1/6 382/1/6 385/1/6
f 383/1/6 384/1/6 388/1/6
f 385/1/6 386/1/6 389/1/6
f 387/1/6 388/1/6 392/1/6
f 389/1/6 390/1/6 393/1/6
f 391/1/6 392/1/6 396/1/6
f 393/1/6 394/1/6 397/1/6
f 381/1/6 385/1/6 397/1/6
f 385/1/6 389/1/6 397/1/6
f 389/1/6 393/1/6 397/1/6
f 397/1/6 394/1/6 398/1/6
f 395/1/6 396/1/6 399/1/6
f 396/1/6 392/1/6 400/1/6
f 399/1/6 396/1/6 400/1/6
f 388/1/6 384/1/6 400/1/6
f 392/1/6 388/1/6 400/1/6
f 401/4/6 402/4/6 404/4/6
f 404/4/6 402/4/6 405/4/6
f 403/4/6 404/4/6 409/4/6
f 404/4/6 405/4/6 409/4/6
f 405/4/6 406/4/6 409/4/6
f 409/4/6 406/4/6 410/4/6
f 406/3/6 407/3/6 411/3/6
f 410/4/6 406/4/6 411/4/6
f 411/3/6 407/3/6 412/3/6
f 409/4/6 410/4/6 414/4/6
f 408/4/6 409/4/6 414/4/6
f 411/3/6 412/3/6 415/3/6
f 414/4/6 410/4/6 415/4/6
f 410/3/6 411/3/6 415/3/6
f 415/3/6 412/3/6 416/3/6
f 412/4/6 413/4/6 417/4/6
f 416/3/6 412/3/6 417/3/6
f 408/4/6 414/4/6 418/4/6
f 415/3/6 416/3/6 419/3/6
f 418/4/6 414/4/6 419/4/6
f 414/3/6 415/3/6 419/3/6
f 419/3/6 416/3/6 420/3/6
f 416/4/6 417/4/6 421/4/6
f 420/3/6 416/3/6 421/3/6
f 408/4/6 418/4/6 423/4/6
f 423/4/6 418/4/6 424/4/6
f 419/3/6 420/3/6 425/3/6
f 424/4/6 418/4/6 425/4/6
f 418/3/6 419/3/6 425/3/6
f 425/3/6 420/3/6 426/3/6
f 420/4/6 421/4/6 427/4/6
f 426/3/6 420/3/6 427/3/6
f 421/4/6 417/4/6 428/4/6
f 427/4/6 421/4/6 428/4/6
f 417/4/6 413/4/6 428/4/6
f 423/4/6 424/4/6 430/4/6
f 422/4/6 423/4/6 430/4/6
f 424/3/6 425/3/6 431/3/6
f 430/4/6 424/4/6 431/4/6
f 425/3/6 426/3/6 431/3/6
f 431/3/6 426/3/6 432/3/6
f 426/4/6 427/4/6 433/4/6
f 432/3/6 426/3/6 433/3/6
f 428/4/6 429/4/6 433/4/6
f 427/4/6 428/4/6 433/4/6
f 422/4/6 430/4/6 434/4/6
f 431/3/6 432/3/6 435/3/6
f 434/4/6 430/4/6 435/4/6
f 430/3/6 431/3/6 435/3/6
f 435/3/6 432/3/6 436/3/6
f 432/4/6 433/4/6 437/4/6
f 436/3/6 432/3/6 437/3/6
f 422/4/6 434/4/6 439/4/6
f 439/4/6 434/4/6 440/4/6
f 435/3/6 436/3/6 441/3/6
f 440/4/6 434/4/6 441/4/6
f 434/3/6 435/3/6 441/3/6
f 441/3/6 436/3/6 442/3/6
f 436/4/6 437/4/6 443/4/6
f 442/3/6 436/3/6 443/3/6
f 437/4/6 433/4/6 444/4/6
f 443/4/6 437/4/6 444/4/6
f 433/4/6 429/4/6 444/4/6
f 444/4/6 429/4/6 445/4/6
f 439/4/6 440/4/6 447/4/6
f 438/4/6 439/4/6 447/4/6
f 440/3/6 441/3/6 448/3/6
f 447/4/6 440/4/6 448/4/6
f 441/3/6 442/3/6 448/3/6
f 448/3/6 442/3/6 449/3/6
f 442/4/6 443/4/6 450/4/6
f 449/3/6 442/3/6 450/3/6
f 443/4/6 444/4/6 450/4/6
f 450/4/6 444/4/6 451/4/6
f 445/3/6 446/3/6 452/3/6
f 451/4/6 444/4/6 452/4/6
f 444/3/6 445/3/6 452/3/6
f 452/3/6 446/3/6 453/3/6
f 453/3/6 446/3/6 454/3/6
f 438/4/6 447/4/6 455/4/6
f 448/3/6 449/3/6 456/3/6
f 455/4/6 447/4/6 456/4/6
f 447/3/6 448/3/6 456/3/6
f 456/3/6 449/3/6 457/3/6
f 450/4/6 451/4/6 458/4/6
f 457/3/6 449/3/6 458/3/6
f 449/4/6 450/4/6 458/4/6
f 458/4/6 451/4/6 459/4/6
f 451/3/6 452/3/6 460/3/6
f 459/4/6 451/4/6 460/4/6
f 452/3/6 453/3/6 460/3/6
f 460/3/6 453/3/6 461/3/6
f 453/4/6 454/4/6 462/4/6
f 461/3/6 453/3/6 462/3/6
f 438/4/6 455/4/6 463/4/6
f 456/3/6 457/3/6 464/3/6
f 463/4/6 455/4/6 464/4/6
f 455/3/6 456/3/6 464/3/6
f 464/3/6 457/3/6 465/3/6
f 458/4/6 459/4/6 466/4/6
f 465/3/6 457/3/6 466/3/6
f 457/4/6 458/4/6 466/4/6
f 466/4/6 459/4/6 467/4/6
f 460/3/6 461/3/6 468/3/6
f 467/4/6 459/4/6 468/4/6
f 459/3/6 460/3/6 468/3/6
f 468/3/6 461/3/6 469/3/6
f 461/4/6 462/4/6 470/4/6
f 469/3/6 461/3/6 470/3/6
f 464/3/6 465/3/6 471/3/6
f 463/3/6 464/3/6 471/3/6
f 471/3/6 465/3/6 472/3/6
f 466/4/6 467/4/6 473/4/6
f 472/3/6 465/3/6 473/3/6
f 465/4/6 466/4/6 473/4/6
f 473/4/6 467/4/6 474/4/6
f 468/3/6 469/3/6 475/3/6
f 474/4/6 467/4/6 475/4/6
f 467/3/6 468/3/6 475/3/6
f 475/3/6 469/3/6 476/3/6
f 469/4/6 470/4/6 477/4/6
f 476/3/6 469/3/6 477/3/6
f 462/4/6 454/4/6 478/4/6
f 477/4/6 470/4/6 478/4/6
f 470/4/6 462/4/6 478/4/6
f 478/4/6 454/4/6 479/4/6
f 473/4/6 474/4/6 480/4/6
f 472/4/6 473/4/6 480/4/6
f 474/3/6 475/3/6 481/3/6
f 480/4/6 474/4/6 481/4/6
f 475/3/6 476/3/6 481/3/6
f 481/3/6 476/3/6 482/3/6
f 476/4/6 477/4/6 483/4/6
f 482/3/6 476/3/6 483/3/6
f 477/4/6 478/4/6 483/4/6
f 472/4/6 480/4/6 484/4/6
f 481/3/6 482/3/6 485/3/6
f 484/4/6 480/4/6 485/4/6
f 480/3/6 481/3/6 485/3/6
f 485/3/6 482/3/6 486/3/6
f 482/4/6 483/4/6 487/4/6
f 486/3/6 482/3/6 487/3/6
f 472/4/6 484/4/6 488/4/6
f 488/4/6 484/4/6 489/4/6
f 489/4/6 484/4/6 490/4/6
f 485/3/6 486/3/6 491/3/6
f 490/4/6 484/4/6 491/4/6
f 484/3/6 485/3/6 491/3/6
f 491/3/6 486/3/6 492/3/6
f 486/4/6 487/4/6 493/4/6
f 492/3/6 486/3/6 493/3/6
f 487/4/6 483/4/6 494/4/6
f 493/4/6 487/4/6 494/4/6
f 483/4/6 478/4/6 494/4/6
f 494/4/6 478/4/6 495/4/6
f 489/4/6 490/4/6 496/4/6
f 490/3/6 491/3/6 497/3/6
f 496/4/6 490/4/6 497/4/6
f 491/3/6 492/3/6 497/3/6
f 497/3/6 492/3/6 498/3/6
f 492/4/6 493/4/6 499/4/6
f 498/3/6 492/3/6 499/3/6
f 493/4/6 494/4/6 499/4/6
f 489/4/6 496/4/6 500/4/6
f 497/3/6 498/3/6 501/3/6
f 500/4/6 496/4/6 501/4/6
f 496/3/6 497/3/6 501/3/6
f 501/3/6 498/3/6 502/3/6
f 498/4/6 499/4/6 503/4/6
f 502/3/6 498/3/6 503/3/6
f 489/4/6 500/4/6 504/4/6
f 501/3/6 502/3/6 505/3/6
f 504/4/6 500/4/6 505/4/6
f 500/3/6 501/3/6 505/3/6
f 505/3/6 502/3/6 506/3/6
f 502/4/6 503/4/6 507/4/6
f 506/3/6 502/3/6 507/3/6
f 503/4/6 499/4/6 508/4/6
f 507/4/6 503/4/6 508/4/6
f 499/4/6 494/4/6 508/4/6
f 508/4/6 494/4/6 509/4/6
f 505/3/6 506/3/6 510/3/6
f 506/4/6 507/4/6 511/4/6
f 510/3/6 506/3/6 511/3/6
f 507/4/6 508/4/6 511/4/6
f 511/4/6 508/4/6 512/4/6
f 512/4/6 508/4/6 513/4/6
f 513/4/6 508/4/6 514/4/6
f 512/4/6 513/4/6 515/4/6
f 515/4/6 513/4/6 516/4/6
