# MagicaVoxel @ Ephtracy

# material
mtllib rockpad.mtl
usemtl palette

# normals
vn -1 0 0
vn 1 0 0
vn 0 0 1
vn 0 0 -1
vn 0 -1 0
vn 0 1 0

# texcoords
vt 0.119141 0.5
vt 0.224609 0.5
vt 0.240234 0.5
vt 0.244141 0.5
vt 0.255859 0.5

# verts
v -10 4 2
v -10 4 -2
v -10 10 2
v -10 10 -2
v -9 4 5
v -9 4 2
v -9 4 -2
v -9 4 -5
v -9 10 5
v -9 10 2
v -9 10 -2
v -9 10 -5
v -8 2 7
v -8 2 -7
v -8 3 8
v -8 3 7
v -8 3 -7
v -8 3 -8
v -8 4 5
v -8 4 -5
v -8 10 8
v -8 10 5
v -8 10 -5
v -8 10 -8
v -5 1 7
v -5 1 -5
v -5 2 7
v -5 2 -5
v -5 3 9
v -5 3 8
v -5 3 -8
v -5 3 -9
v -5 4 6
v -5 4 3
v -5 4 -3
v -5 4 -6
v -5 4 -8
v -5 7 6
v -5 7 3
v -5 7 -3
v -5 7 -6
v -5 10 9
v -5 10 8
v -5 10 -8
v -5 10 -9
v -4 0 5
v -4 0 4
v -4 0 -4
v -4 0 -5
v -4 1 5
v -4 1 4
v -4 1 -4
v -4 1 -5
v -2 4 10
v -2 4 9
v -2 4 -6
v -2 4 -7
v -2 4 -9
v -2 4 -10
v -2 7 -6
v -2 7 -7
v -2 10 10
v -2 10 9
v -2 10 -9
v -2 10 -10
v -1 4 7
v -1 4 2
v -1 4 -2
v -1 4 -6
v -1 7 7
v -1 7 2
v -1 7 -2
v -1 7 -6
v 2 4 6
v 2 4 3
v 2 4 -3
v 2 4 -5
v 2 5 -4
v 2 5 -5
v 2 7 6
v 2 7 3
v 2 7 -3
v 2 7 -4
v 2 7 -5
v 3 0 5
v 3 0 4
v 3 0 -4
v 3 0 -5
v 3 1 5
v 3 1 4
v 3 1 -4
v 3 1 -5
v 4 4 3
v 4 4 2
v 4 5 3
v 4 5 2
v 4 7 3
v 4 7 2
v 5 4 -2
v 5 4 -3
v 5 5 -3
v 5 7 -2
v 5 7 -3
v 6 2 7
v 6 2 -7
v 6 3 7
v 6 3 -7
v 6 3 -8
v 6 4 6
v 6 4 2
v 6 4 -7
v 6 4 -8
v 6 7 6
v 6 7 2
v -6 2 -6
v -6 2 -7
v -6 3 -6
v -6 3 -7
v -6 3 -8
v -6 4 7
v -6 4 2
v -6 4 -2
v -6 4 -7
v -6 4 -8
v -6 7 7
v -6 7 2
v -6 7 -2
v -6 7 -7
v -3 0 5
v -3 0 4
v -3 0 -4
v -3 0 -5
v -3 1 5
v -3 1 4
v -3 1 -4
v -3 1 -5
v -2 4 6
v -2 4 3
v -2 4 -3
v -2 4 -6
v -2 7 6
v -2 7 3
v -2 7 -3
v -2 7 -6
v 1 4 6
v 1 4 2
v 1 4 -2
v 1 4 -5
v 1 7 6
v 1 7 2
v 1 7 -2
v 1 7 -5
v 2 4 10
v 2 4 9
v 2 4 -9
v 2 4 -10
v 2 10 10
v 2 10 9
v 2 10 -9
v 2 10 -10
v 4 0 5
v 4 0 4
v 4 0 -4
v 4 0 -5
v 4 1 5
v 4 1 4
v 4 1 -4
v 4 1 -5
v 5 1 7
v 5 1 -5
v 5 2 -5
v 5 2 -6
v 5 3 9
v 5 3 8
v 5 3 7
v 5 3 -6
v 5 3 -8
v 5 3 -9
v 5 4 6
v 5 4 3
v 5 4 2
v 5 4 -8
v 5 5 3
v 5 5 2
v 5 7 6
v 5 7 3
v 5 7 2
v 5 10 9
v 5 10 8
v 5 10 -8
v 5 10 -9
v 8 2 7
v 8 2 -7
v 8 3 8
v 8 3 7
v 8 3 -7
v 8 3 -8
v 8 4 5
v 8 4 -5
v 8 10 8
v 8 10 5
v 8 10 -5
v 8 10 -8
v 9 4 5
v 9 4 2
v 9 4 -2
v 9 4 -5
v 9 10 5
v 9 10 2
v 9 10 -2
v 9 10 -5
v 10 4 2
v 10 4 -2
v 10 10 2
v 10 10 -2
v -2 4 10
v -2 10 10
v 2 4 10
v 2 10 10
v -5 3 9
v -5 10 9
v -2 4 9
v -2 10 9
v 2 4 9
v 2 10 9
v 5 3 9
v 5 10 9
v -8 3 8
v -8 10 8
v -5 3 8
v -5 10 8
v 5 3 8
v 5 10 8
v 8 3 8
v 8 10 8
v -8 2 7
v -8 3 7
v -5 1 7
v -5 2 7
v 5 1 7
v 5 3 7
v 6 2 7
v 6 3 7
v 8 2 7
v 8 3 7
v -5 4 6
v -5 7 6
v -2 4 6
v -2 7 6
v -9 4 5
v -9 10 5
v -8 4 5
v -8 10 5
v -4 0 5
v -4 1 5
v -3 0 5
v -3 1 5
v 3 0 5
v 3 1 5
v 4 0 5
v 4 1 5
v 8 4 5
v 8 10 5
v 9 4 5
v 9 10 5
v -10 4 2
v -10 10 2
v -9 4 2
v -9 10 2
v -6 4 2
v -6 7 2
v -1 4 2
v -1 7 2
v 1 4 2
v 1 7 2
v 4 4 2
v 4 5 2
v 4 7 2
v 5 4 2
v 5 5 2
v 5 7 2
v 6 4 2
v 6 7 2
v 9 4 2
v 9 10 2
v 10 4 2
v 10 10 2
v -5 4 -3
v -5 7 -3
v -2 4 -3
v -2 7 -3
v 2 4 -3
v 2 7 -3
v 3 5 -3
v 3 7 -3
v 5 4 -3
v 5 5 -3
v 5 7 -3
v -4 0 -4
v -4 1 -4
v -3 0 -4
v -3 1 -4
v 3 0 -4
v 3 1 -4
v 4 0 -4
v 4 1 -4
v 1 4 -5
v 1 7 -5
v 2 4 -5
v 2 5 -5
v 2 7 -5
v -2 4 -6
v -2 7 -6
v -1 4 -6
v -1 7 -6
v -6 4 -7
v -6 7 -7
v -2 4 -7
v -2 7 -7
v -5 3 -8
v -5 4 -8
v 5 3 -8
v 5 4 -8
v -6 4 7
v -6 7 7
v -1 4 7
v -1 7 7
v 1 4 6
v 1 7 6
v 2 4 6
v 2 7 6
v 5 4 6
v 5 7 6
v 6 4 6
v 6 7 6
v -4 0 4
v -4 1 4
v -3 0 4
v -3 1 4
v 3 0 4
v 3 1 4
v 4 0 4
v 4 1 4
v -5 4 3
v -5 7 3
v -2 4 3
v -2 7 3
v 2 4 3
v 2 7 3
v 4 4 3
v 4 5 3
v 4 7 3
v -10 4 -2
v -10 10 -2
v -9 4 -2
v -9 10 -2
v -6 4 -2
v -6 7 -2
v -1 4 -2
v -1 7 -2
v 1 4 -2
v 1 7 -2
v 5 4 -2
v 5 7 -2
v 9 4 -2
v 9 10 -2
v 10 4 -2
v 10 10 -2
v -9 4 -5
v -9 10 -5
v -8 4 -5
v -8 10 -5
v -5 1 -5
v -5 2 -5
v -4 0 -5
v -4 1 -5
v -4 2 -5
v -3 0 -5
v -3 1 -5
v -3 2 -5
v 3 0 -5
v 3 1 -5
v 3 2 -5
v 4 0 -5
v 4 1 -5
v 4 2 -5
v 5 1 -5
v 5 2 -5
v 8 4 -5
v 8 10 -5
v 9 4 -5
v 9 10 -5
v -6 2 -6
v -6 3 -6
v -5 4 -6
v -5 7 -6
v -2 4 -6
v -2 7 -6
v 5 2 -6
v 5 3 -6
v -8 2 -7
v -8 3 -7
v -6 2 -7
v -6 3 -7
v -6 4 -7
v 6 2 -7
v 6 3 -7
v 6 4 -7
v 8 2 -7
v 8 3 -7
v -8 3 -8
v -8 10 -8
v -6 3 -8
v -6 4 -8
v -5 4 -8
v -5 10 -8
v 5 4 -8
v 5 10 -8
v 6 3 -8
v 6 4 -8
v 8 3 -8
v 8 10 -8
v -5 3 -9
v -5 10 -9
v -2 4 -9
v -2 10 -9
v 2 4 -9
v 2 10 -9
v 5 3 -9
v 5 10 -9
v -2 4 -10
v -2 10 -10
v 2 4 -10
v 2 10 -10
v -4 0 5
v -3 0 5
v 3 0 5
v 4 0 5
v -4 0 4
v -3 0 4
v 3 0 4
v 4 0 4
v -4 0 -4
v -3 0 -4
v 3 0 -4
v 4 0 -4
v -4 0 -5
v -3 0 -5
v 3 0 -5
v 4 0 -5
v -5 1 7
v 5 1 7
v -4 1 5
v -3 1 5
v 3 1 5
v 4 1 5
v -4 1 4
v -3 1 4
v 3 1 4
v 4 1 4
v -4 1 -4
v -3 1 -4
v 3 1 -4
v 4 1 -4
v -5 1 -5
v -4 1 -5
v -3 1 -5
v 3 1 -5
v 4 1 -5
v 5 1 -5
v -8 2 7
v -5 2 7
v 6 2 7
v 8 2 7
v -5 2 -5
v -4 2 -5
v -3 2 -5
v 3 2 -5
v 4 2 -5
v 5 2 -5
v -6 2 -6
v 5 2 -6
v -8 2 -7
v -6 2 -7
v 6 2 -7
v 8 2 -7
v -5 3 9
v 5 3 9
v -8 3 8
v -5 3 8
v 5 3 8
v 8 3 8
v -8 3 7
v 5 3 7
v 6 3 7
v 8 3 7
v -6 3 -6
v 5 3 -6
v -8 3 -7
v -6 3 -7
v 6 3 -7
v 8 3 -7
v -8 3 -8
v -6 3 -8
v -5 3 -8
v 5 3 -8
v 6 3 -8
v 8 3 -8
v -5 3 -9
v 5 3 -9
v -2 4 10
v 2 4 10
v -2 4 9
v 2 4 9
v -9 4 5
v -8 4 5
v 8 4 5
v 9 4 5
v -10 4 2
v -9 4 2
v 9 4 2
v 10 4 2
v -10 4 -2
v -9 4 -2
v 9 4 -2
v 10 4 -2
v -9 4 -5
v -8 4 -5
v 8 4 -5
v 9 4 -5
v -6 4 -7
v 6 4 -7
v -6 4 -8
v -5 4 -8
v 5 4 -8
v 6 4 -8
v -2 4 -9
v 2 4 -9
v -2 4 -10
v 2 4 -10
v -6 7 7
v -1 7 7
v -5 7 6
v -2 7 6
v 1 7 6
v 2 7 6
v 5 7 6
v 6 7 6
v -5 7 3
v -2 7 3
v 2 7 3
v 4 7 3
v 5 7 3
v -6 7 2
v -1 7 2
v 1 7 2
v 4 7 2
v 5 7 2
v 6 7 2
v -6 7 -2
v -1 7 -2
v 1 7 -2
v 5 7 -2
v -5 7 -3
v -2 7 -3
v 2 7 -3
v 3 7 -3
v 5 7 -3
v 2 7 -4
v 1 7 -5
v 2 7 -5
v -5 7 -6
v -2 7 -6
v -1 7 -6
v -6 7 -7
v -2 7 -7
v -6 4 7
v -1 4 7
v -5 4 6
v -2 4 6
v 1 4 6
v 2 4 6
v 5 4 6
v 6 4 6
v -5 4 3
v -2 4 3
v 2 4 3
v 4 4 3
v 5 4 3
v -6 4 2
v -1 4 2
v 1 4 2
v 4 4 2
v 5 4 2
v 6 4 2
v -6 4 -2
v -1 4 -2
v 1 4 -2
v 5 4 -2
v -5 4 -3
v -2 4 -3
v 2 4 -3
v 5 4 -3
v 1 4 -5
v 2 4 -5
v -5 4 -6
v -2 4 -6
v -1 4 -6
v -6 4 -7
v -2 4 -7
v -2 10 10
v 2 10 10
v -5 10 9
v -2 10 9
v 2 10 9
v 5 10 9
v -8 10 8
v -5 10 8
v 5 10 8
v 8 10 8
v -9 10 5
v -8 10 5
v -4 10 5
v 4 10 5
v 8 10 5
v 9 10 5
v -3 10 4
v 3 10 4
v -10 10 2
v -9 10 2
v 9 10 2
v 10 10 2
v -10 10 -2
v -9 10 -2
v 9 10 -2
v 10 10 -2
v -3 10 -3
v 3 10 -3
v -4 10 -4
v 4 10 -4
v -9 10 -5
v -8 10 -5
v 8 10 -5
v 9 10 -5
v -8 10 -8
v -5 10 -8
v 5 10 -8
v 8 10 -8
v -5 10 -9
v -2 10 -9
v 2 10 -9
v 5 10 -9
v -2 10 -10
v 2 10 -10

# faces
f 3/3/1 2/3/1 1/3/1
f 4/3/1 2/3/1 3/3/1
f 9/5/1 6/5/1 5/5/1
f 10/5/1 6/5/1 9/5/1
f 11/5/1 8/5/1 7/5/1
f 12/5/1 8/5/1 11/5/1
f 16/5/1 14/5/1 13/5/1
f 17/5/1 14/5/1 16/5/1
f 19/5/1 16/5/1 15/5/1
f 19/5/1 18/5/1 17/5/1
f 19/5/1 17/5/1 16/5/1
f 20/5/1 18/5/1 19/5/1
f 21/5/1 19/5/1 15/5/1
f 22/5/1 19/5/1 21/5/1
f 23/5/1 18/5/1 20/5/1
f 24/5/1 18/5/1 23/5/1
f 27/5/1 26/5/1 25/5/1
f 28/5/1 26/5/1 27/5/1
f 37/5/1 32/5/1 31/5/1
f 38/2/1 34/2/1 33/2/1
f 39/2/1 34/2/1 38/2/1
f 40/2/1 36/2/1 35/2/1
f 41/2/1 36/2/1 40/2/1
f 42/5/1 30/5/1 29/5/1
f 43/5/1 30/5/1 42/5/1
f 44/5/1 32/5/1 37/5/1
f 45/5/1 32/5/1 44/5/1
f 50/4/1 47/4/1 46/4/1
f 51/4/1 47/4/1 50/4/1
f 52/4/1 49/4/1 48/4/1
f 53/4/1 49/4/1 52/4/1
f 60/5/1 57/5/1 56/5/1
f 61/5/1 57/5/1 60/5/1
f 62/3/1 55/3/1 54/3/1
f 63/3/1 55/3/1 62/3/1
f 64/3/1 59/3/1 58/3/1
f 65/3/1 59/3/1 64/3/1
f 70/5/1 67/5/1 66/5/1
f 71/5/1 67/5/1 70/5/1
f 72/5/1 69/5/1 68/5/1
f 73/5/1 69/5/1 72/5/1
f 78/2/1 77/2/1 76/2/1
f 79/2/1 77/2/1 78/2/1
f 80/2/1 75/2/1 74/2/1
f 81/2/1 75/2/1 80/2/1
f 82/2/1 78/2/1 76/2/1
f 83/5/1 79/5/1 78/5/1
f 83/2/1 78/2/1 82/2/1
f 84/5/1 79/5/1 83/5/1
f 89/4/1 86/4/1 85/4/1
f 90/4/1 86/4/1 89/4/1
f 91/4/1 88/4/1 87/4/1
f 92/4/1 88/4/1 91/4/1
f 95/4/1 94/4/1 93/4/1
f 96/4/1 94/4/1 95/4/1
f 97/5/1 96/5/1 95/5/1
f 98/5/1 96/5/1 97/5/1
f 101/5/1 100/5/1 99/5/1
f 102/5/1 101/5/1 99/5/1
f 103/5/1 101/5/1 102/5/1
f 106/5/1 105/5/1 104/5/1
f 107/5/1 105/5/1 106/5/1
f 111/5/1 108/5/1 107/5/1
f 112/5/1 108/5/1 111/5/1
f 113/5/1 110/5/1 109/5/1
f 114/5/1 110/5/1 113/5/1
f 115/5/2 116/5/2 117/5/2
f 117/5/2 116/5/2 118/5/2
f 118/5/2 119/5/2 123/5/2
f 123/5/2 119/5/2 124/5/2
f 120/5/2 121/5/2 125/5/2
f 125/5/2 121/5/2 126/5/2
f 122/5/2 123/5/2 127/5/2
f 127/5/2 123/5/2 128/5/2
f 129/4/2 130/4/2 133/4/2
f 133/4/2 130/4/2 134/4/2
f 131/4/2 132/4/2 135/4/2
f 135/4/2 132/4/2 136/4/2
f 137/2/2 138/2/2 141/2/2
f 141/2/2 138/2/2 142/2/2
f 139/2/2 140/2/2 143/2/2
f 143/2/2 140/2/2 144/2/2
f 145/5/2 146/5/2 149/5/2
f 149/5/2 146/5/2 150/5/2
f 147/5/2 148/5/2 151/5/2
f 151/5/2 148/5/2 152/5/2
f 153/3/2 154/3/2 157/3/2
f 157/3/2 154/3/2 158/3/2
f 155/3/2 156/3/2 159/3/2
f 159/3/2 156/3/2 160/3/2
f 161/4/2 162/4/2 165/4/2
f 165/4/2 162/4/2 166/4/2
f 163/4/2 164/4/2 167/4/2
f 167/4/2 164/4/2 168/4/2
f 169/5/2 170/5/2 171/5/2
f 169/5/2 171/5/2 175/5/2
f 171/5/2 172/5/2 175/5/2
f 175/5/2 172/5/2 176/5/2
f 177/5/2 178/5/2 182/5/2
f 180/4/2 181/4/2 183/4/2
f 179/2/2 180/2/2 183/2/2
f 183/4/2 181/4/2 184/4/2
f 179/2/2 183/2/2 185/2/2
f 183/5/2 184/5/2 186/5/2
f 185/2/2 183/2/2 186/2/2
f 186/5/2 184/5/2 187/5/2
f 173/5/2 174/5/2 188/5/2
f 188/5/2 174/5/2 189/5/2
f 182/5/2 178/5/2 190/5/2
f 190/5/2 178/5/2 191/5/2
f 192/5/2 193/5/2 195/5/2
f 195/5/2 193/5/2 196/5/2
f 194/5/2 195/5/2 198/5/2
f 196/5/2 197/5/2 198/5/2
f 195/5/2 196/5/2 198/5/2
f 198/5/2 197/5/2 199/5/2
f 194/5/2 198/5/2 200/5/2
f 200/5/2 198/5/2 201/5/2
f 199/5/2 197/5/2 202/5/2
f 202/5/2 197/5/2 203/5/2
f 204/5/2 205/5/2 208/5/2
f 208/5/2 205/5/2 209/5/2
f 206/5/2 207/5/2 210/5/2
f 210/5/2 207/5/2 211/5/2
f 212/3/2 213/3/2 214/3/2
f 214/3/2 213/3/2 215/3/2
f 218/3/3 217/3/3 216/3/3
f 219/3/3 217/3/3 218/3/3
f 222/5/3 221/5/3 220/5/3
f 223/5/3 221/5/3 222/5/3
f 224/5/3 222/5/3 220/5/3
f 226/5/3 224/5/3 220/5/3
f 226/5/3 225/5/3 224/5/3
f 227/5/3 225/5/3 226/5/3
f 230/5/3 229/5/3 228/5/3
f 231/5/3 229/5/3 230/5/3
f 234/5/3 233/5/3 232/5/3
f 235/5/3 233/5/3 234/5/3
f 239/5/3 237/5/3 236/5/3
f 240/5/3 239/5/3 238/5/3
f 241/5/3 237/5/3 239/5/3
f 241/5/3 239/5/3 240/5/3
f 244/5/3 243/5/3 242/5/3
f 245/5/3 243/5/3 244/5/3
f 248/2/3 247/2/3 246/2/3
f 249/2/3 247/2/3 248/2/3
f 252/5/3 251/5/3 250/5/3
f 253/5/3 251/5/3 252/5/3
f 256/4/3 255/4/3 254/4/3
f 257/4/3 255/4/3 256/4/3
f 260/4/3 259/4/3 258/4/3
f 261/4/3 259/4/3 260/4/3
f 264/5/3 263/5/3 262/5/3
f 265/5/3 263/5/3 264/5/3
f 268/3/3 267/3/3 266/3/3
f 269/3/3 267/3/3 268/3/3
f 272/5/3 271/5/3 270/5/3
f 273/5/3 271/5/3 272/5/3
f 276/5/3 275/5/3 274/5/3
f 277/5/3 275/5/3 276/5/3
f 278/5/3 275/5/3 277/5/3
f 282/5/3 280/5/3 279/5/3
f 282/5/3 281/5/3 280/5/3
f 283/5/3 281/5/3 282/5/3
f 286/3/3 285/3/3 284/3/3
f 287/3/3 285/3/3 286/3/3
f 290/2/3 289/2/3 288/2/3
f 291/2/3 289/2/3 290/2/3
f 294/2/3 293/2/3 292/2/3
f 295/2/3 293/2/3 294/2/3
f 296/2/3 294/2/3 292/2/3
f 297/5/3 295/5/3 294/5/3
f 297/2/3 294/2/3 296/2/3
f 298/5/3 295/5/3 297/5/3
f 301/4/3 300/4/3 299/4/3
f 302/4/3 300/4/3 301/4/3
f 305/4/3 304/4/3 303/4/3
f 306/4/3 304/4/3 305/4/3
f 309/5/3 308/5/3 307/5/3
f 310/5/3 308/5/3 309/5/3
f 311/5/3 308/5/3 310/5/3
f 314/5/3 313/5/3 312/5/3
f 315/5/3 313/5/3 314/5/3
f 318/5/3 317/5/3 316/5/3
f 319/5/3 317/5/3 318/5/3
f 322/5/3 321/5/3 320/5/3
f 323/5/3 321/5/3 322/5/3
f 324/5/4 325/5/4 326/5/4
f 326/5/4 325/5/4 327/5/4
f 328/5/4 329/5/4 330/5/4
f 330/5/4 329/5/4 331/5/4
f 332/5/4 333/5/4 334/5/4
f 334/5/4 333/5/4 335/5/4
f 336/4/4 337/4/4 338/4/4
f 338/4/4 337/4/4 339/4/4
f 340/4/4 341/4/4 342/4/4
f 342/4/4 341/4/4 343/4/4
f 344/2/4 345/2/4 346/2/4
f 346/2/4 345/2/4 347/2/4
f 348/2/4 349/2/4 350/2/4
f 350/2/4 349/2/4 351/2/4
f 351/2/4 349/2/4 352/2/4
f 353/3/4 354/3/4 355/3/4
f 355/3/4 354/3/4 356/3/4
f 357/5/4 358/5/4 359/5/4
f 359/5/4 358/5/4 360/5/4
f 361/5/4 362/5/4 363/5/4
f 363/5/4 362/5/4 364/5/4
f 365/3/4 366/3/4 367/3/4
f 367/3/4 366/3/4 368/3/4
f 369/5/4 370/5/4 371/5/4
f 371/5/4 370/5/4 372/5/4
f 373/5/4 374/5/4 376/5/4
f 376/5/4 374/5/4 377/5/4
f 375/4/4 376/4/4 378/4/4
f 376/4/4 377/4/4 378/4/4
f 378/4/4 377/4/4 379/4/4
f 379/4/4 377/4/4 380/4/4
f 379/5/4 380/5/4 382/5/4
f 382/5/4 380/5/4 383/5/4
f 381/4/4 382/4/4 384/4/4
f 382/4/4 383/4/4 384/4/4
f 384/4/4 383/4/4 385/4/4
f 385/4/4 383/4/4 386/4/4
f 385/5/4 386/5/4 387/5/4
f 387/5/4 386/5/4 388/5/4
f 389/5/4 390/5/4 391/5/4
f 391/5/4 390/5/4 392/5/4
f 395/2/4 396/2/4 397/2/4
f 397/2/4 396/2/4 398/2/4
f 393/5/4 394/5/4 399/5/4
f 399/5/4 394/5/4 400/5/4
f 401/5/4 402/5/4 403/5/4
f 403/5/4 402/5/4 404/5/4
f 404/5/4 405/5/4 407/5/4
f 407/5/4 405/5/4 408/5/4
f 406/5/4 407/5/4 409/5/4
f 409/5/4 407/5/4 410/5/4
f 411/5/4 412/5/4 413/5/4
f 413/5/4 412/5/4 414/5/4
f 414/5/4 412/5/4 415/5/4
f 415/5/4 412/5/4 416/5/4
f 417/5/4 418/5/4 420/5/4
f 419/5/4 420/5/4 421/5/4
f 420/5/4 418/5/4 422/5/4
f 421/5/4 420/5/4 422/5/4
f 423/5/4 424/5/4 425/5/4
f 425/5/4 424/5/4 426/5/4
f 423/5/4 425/5/4 427/5/4
f 423/5/4 427/5/4 429/5/4
f 427/5/4 428/5/4 429/5/4
f 429/5/4 428/5/4 430/5/4
f 431/3/4 432/3/4 433/3/4
f 433/3/4 432/3/4 434/3/4
f 439/4/5 436/4/5 435/4/5
f 440/4/5 436/4/5 439/4/5
f 441/4/5 438/4/5 437/4/5
f 442/4/5 438/4/5 441/4/5
f 447/4/5 444/4/5 443/4/5
f 448/4/5 444/4/5 447/4/5
f 449/4/5 446/4/5 445/4/5
f 450/4/5 446/4/5 449/4/5
f 453/5/5 452/5/5 451/5/5
f 454/5/5 452/5/5 453/5/5
f 455/5/5 452/5/5 454/5/5
f 456/5/5 452/5/5 455/5/5
f 457/5/5 453/5/5 451/5/5
f 458/5/5 455/5/5 454/5/5
f 459/5/5 455/5/5 458/5/5
f 460/5/5 452/5/5 456/5/5
f 461/5/5 459/5/5 458/5/5
f 461/5/5 460/5/5 459/5/5
f 461/5/5 457/5/5 451/5/5
f 461/5/5 458/5/5 457/5/5
f 462/5/5 460/5/5 461/5/5
f 463/5/5 460/5/5 462/5/5
f 464/5/5 452/5/5 460/5/5
f 464/5/5 460/5/5 463/5/5
f 465/5/5 461/5/5 451/5/5
f 466/5/5 461/5/5 465/5/5
f 467/5/5 463/5/5 462/5/5
f 468/5/5 463/5/5 467/5/5
f 469/5/5 452/5/5 464/5/5
f 470/5/5 452/5/5 469/5/5
f 475/5/5 472/5/5 471/5/5
f 481/5/5 475/5/5 471/5/5
f 481/5/5 480/5/5 479/5/5
f 481/5/5 479/5/5 478/5/5
f 481/5/5 478/5/5 477/5/5
f 481/5/5 477/5/5 476/5/5
f 481/5/5 476/5/5 475/5/5
f 482/5/5 480/5/5 481/5/5
f 483/5/5 481/5/5 471/5/5
f 484/5/5 481/5/5 483/5/5
f 485/5/5 474/5/5 473/5/5
f 486/5/5 474/5/5 485/5/5
f 490/5/5 488/5/5 487/5/5
f 491/5/5 488/5/5 490/5/5
f 493/5/5 490/5/5 489/5/5
f 493/5/5 492/5/5 491/5/5
f 493/5/5 491/5/5 490/5/5
f 494/5/5 492/5/5 493/5/5
f 495/5/5 492/5/5 494/5/5
f 496/5/5 492/5/5 495/5/5
f 498/5/5 495/5/5 494/5/5
f 500/5/5 498/5/5 497/5/5
f 501/5/5 495/5/5 498/5/5
f 501/5/5 498/5/5 500/5/5
f 503/5/5 500/5/5 499/5/5
f 504/5/5 500/5/5 503/5/5
f 507/5/5 502/5/5 501/5/5
f 508/5/5 502/5/5 507/5/5
f 509/5/5 506/5/5 505/5/5
f 510/5/5 506/5/5 509/5/5
f 513/3/5 512/3/5 511/3/5
f 514/3/5 512/3/5 513/3/5
f 520/5/5 516/5/5 515/5/5
f 521/5/5 518/5/5 517/5/5
f 523/3/5 520/3/5 519/3/5
f 524/5/5 516/5/5 520/5/5
f 524/3/5 520/3/5 523/3/5
f 525/3/5 522/3/5 521/3/5
f 525/5/5 521/5/5 517/5/5
f 526/3/5 522/3/5 525/3/5
f 527/5/5 516/5/5 524/5/5
f 528/5/5 516/5/5 527/5/5
f 529/5/5 525/5/5 517/5/5
f 530/5/5 525/5/5 529/5/5
f 533/5/5 532/5/5 531/5/5
f 534/5/5 532/5/5 533/5/5
f 535/5/5 532/5/5 534/5/5
f 536/5/5 532/5/5 535/5/5
f 539/3/5 538/3/5 537/3/5
f 540/3/5 538/3/5 539/3/5
f 543/4/5 542/4/5 541/4/5
f 544/4/5 542/4/5 543/4/5
f 549/4/5 543/4/5 541/4/5
f 550/4/5 542/4/5 544/4/5
f 551/4/5 546/4/5 545/4/5
f 553/4/5 548/4/5 547/4/5
f 554/4/5 550/4/5 549/4/5
f 554/4/5 549/4/5 541/4/5
f 555/4/5 542/4/5 550/4/5
f 555/4/5 550/4/5 554/4/5
f 556/4/5 552/4/5 551/4/5
f 556/4/5 551/4/5 545/4/5
f 557/4/5 552/4/5 556/4/5
f 558/4/5 548/4/5 553/4/5
f 559/4/5 548/4/5 558/4/5
f 564/4/5 561/4/5 560/4/5
f 565/4/5 561/4/5 564/4/5
f 566/4/5 563/4/5 562/4/5
f 567/4/5 563/4/5 566/4/5
f 568/4/5 563/4/5 567/4/5
f 569/4/5 566/4/5 562/4/5
f 570/4/5 569/4/5 562/4/5
f 571/4/5 569/4/5 570/4/5
f 572/4/5 564/4/5 560/4/5
f 573/4/5 561/4/5 565/4/5
f 574/4/5 561/4/5 573/4/5
f 575/4/5 572/4/5 560/4/5
f 575/4/5 573/4/5 572/4/5
f 576/4/5 573/4/5 575/4/5
f 577/5/6 578/5/6 579/5/6
f 579/5/6 578/5/6 580/5/6
f 577/5/6 579/5/6 585/5/6
f 580/5/6 578/5/6 586/5/6
f 581/5/6 582/5/6 587/5/6
f 583/5/6 584/5/6 589/5/6
f 585/5/6 586/5/6 590/5/6
f 577/5/6 585/5/6 590/5/6
f 586/5/6 578/5/6 591/5/6
f 590/5/6 586/5/6 591/5/6
f 587/5/6 588/5/6 592/5/6
f 581/5/6 587/5/6 592/5/6
f 592/5/6 588/5/6 593/5/6
f 589/5/6 584/5/6 594/5/6
f 594/5/6 584/5/6 595/5/6
f 596/5/6 597/5/6 600/5/6
f 600/5/6 597/5/6 601/5/6
f 598/5/6 599/5/6 602/5/6
f 602/5/6 599/5/6 603/5/6
f 598/5/6 602/5/6 604/5/6
f 604/5/6 602/5/6 605/5/6
f 596/5/6 600/5/6 606/5/6
f 601/5/6 597/5/6 607/5/6
f 607/5/6 597/5/6 608/5/6
f 596/5/6 606/5/6 609/5/6
f 606/5/6 607/5/6 609/5/6
f 609/5/6 607/5/6 610/5/6
f 611/3/6 612/3/6 614/3/6
f 614/3/6 612/3/6 615/3/6
f 613/5/6 614/5/6 618/5/6
f 615/5/6 616/5/6 618/5/6
f 614/5/6 615/5/6 618/5/6
f 618/5/6 616/5/6 619/5/6
f 617/5/6 618/5/6 622/5/6
f 619/5/6 620/5/6 622/5/6
f 618/5/6 619/5/6 622/5/6
f 622/5/6 620/5/6 623/5/6
f 623/5/6 620/5/6 624/5/6
f 624/5/6 620/5/6 625/5/6
f 623/3/6 624/3/6 627/3/6
f 627/3/6 624/3/6 628/3/6
f 621/5/6 622/5/6 630/5/6
f 622/5/6 623/5/6 630/5/6
f 625/5/6 626/5/6 631/5/6
f 624/5/6 625/5/6 631/5/6
f 629/3/6 630/3/6 633/3/6
f 630/5/6 623/5/6 634/5/6
f 633/3/6 630/3/6 634/3/6
f 631/3/6 632/3/6 635/3/6
f 624/5/6 631/5/6 635/5/6
f 635/3/6 632/3/6 636/3/6
f 627/5/6 628/5/6 637/5/6
f 623/3/6 627/3/6 637/3/6
f 628/3/6 624/3/6 638/3/6
f 637/5/6 628/5/6 638/5/6
f 623/3/6 637/3/6 639/3/6
f 634/5/6 623/5/6 639/5/6
f 637/3/6 638/3/6 639/3/6
f 638/3/6 624/3/6 640/3/6
f 639/3/6 638/3/6 640/3/6
f 624/5/6 635/5/6 640/5/6
f 634/5/6 639/5/6 641/5/6
f 639/5/6 640/5/6 641/5/6
f 641/5/6 640/5/6 642/5/6
f 640/5/6 635/5/6 643/5/6
f 642/5/6 640/5/6 643/5/6
f 643/5/6 635/5/6 644/5/6
f 642/5/6 643/5/6 645/5/6
f 645/5/6 643/5/6 646/5/6
f 646/5/6 643/5/6 647/5/6
f 647/5/6 643/5/6 648/5/6
f 646/5/6 647/5/6 649/5/6
f 649/5/6 647/5/6 650/5/6
f 650/5/6 647/5/6 651/5/6
f 651/5/6 647/5/6 652/5/6
f 650/3/6 651/3/6 653/3/6
f 653/3/6 651/3/6 654/3/6
