# MagicaVoxel @ Ephtracy

# material
mtllib TallTree.mtl
usemtl palette

# normals
vn -1 0 0
vn 1 0 0
vn 0 0 1
vn 0 0 -1
vn 0 -1 0
vn 0 1 0

# texcoords
vt 0.189453 0.5
vt 0.193359 0.5
vt 0.205078 0.5
vt 0.212891 0.5

# verts
v -6 3 6
v -6 3 -6
v -6 6 6
v -6 6 -6
v -5 6 5
v -5 6 -5
v -5 9 5
v -5 9 -5
v -4 9 4
v -4 9 -4
v -4 12 4
v -4 12 -4
v -3 0 3
v -3 0 -3
v -3 3 3
v -3 3 -3
v -3 12 3
v -3 12 -3
v -3 15 3
v -3 15 -3
v 3 0 3
v 3 0 -3
v 3 3 3
v 3 3 -3
v 3 12 3
v 3 12 -3
v 3 15 3
v 3 15 -3
v 4 9 4
v 4 9 -4
v 4 12 4
v 4 12 -4
v 5 6 5
v 5 6 -5
v 5 9 5
v 5 9 -5
v 6 3 6
v 6 3 -6
v 6 6 6
v 6 6 -6
v -6 3 6
v -6 6 6
v 6 3 6
v 6 6 6
v -5 6 5
v -5 9 5
v 5 6 5
v 5 9 5
v -4 9 4
v -4 12 4
v 4 9 4
v 4 12 4
v -3 0 3
v -3 3 3
v -3 12 3
v -3 15 3
v 3 0 3
v 3 3 3
v 3 12 3
v 3 15 3
v -3 0 -3
v -3 3 -3
v -3 12 -3
v -3 15 -3
v 3 0 -3
v 3 3 -3
v 3 12 -3
v 3 15 -3
v -4 9 -4
v -4 12 -4
v 4 9 -4
v 4 12 -4
v -5 6 -5
v -5 9 -5
v 5 6 -5
v 5 9 -5
v -6 3 -6
v -6 6 -6
v 6 3 -6
v 6 6 -6
v -3 0 3
v 3 0 3
v -3 0 -3
v 3 0 -3
v -6 3 6
v 6 3 6
v -3 3 3
v 3 3 3
v -3 3 -3
v 3 3 -3
v -6 3 -6
v 6 3 -6
v -6 6 6
v 6 6 6
v -5 6 5
v 5 6 5
v -5 6 -5
v 5 6 -5
v -6 6 -6
v 6 6 -6
v -5 9 5
v 5 9 5
v -4 9 4
v 4 9 4
v -4 9 -4
v 4 9 -4
v -5 9 -5
v 5 9 -5
v -4 12 4
v 4 12 4
v -3 12 3
v 3 12 3
v -3 12 -3
v 3 12 -3
v -4 12 -4
v 4 12 -4
v -3 15 3
v 3 15 3
v -3 15 -3
v 3 15 -3

# faces
f 3/4/1 2/4/1 1/4/1
f 4/4/1 2/4/1 3/4/1
f 7/2/1 6/2/1 5/2/1
f 8/2/1 6/2/1 7/2/1
f 11/4/1 10/4/1 9/4/1
f 12/4/1 10/4/1 11/4/1
f 15/3/1 14/3/1 13/3/1
f 16/3/1 14/3/1 15/3/1
f 19/1/1 18/1/1 17/1/1
f 20/1/1 18/1/1 19/1/1
f 21/3/2 22/3/2 23/3/2
f 23/3/2 22/3/2 24/3/2
f 25/1/2 26/1/2 27/1/2
f 27/1/2 26/1/2 28/1/2
f 29/4/2 30/4/2 31/4/2
f 31/4/2 30/4/2 32/4/2
f 33/2/2 34/2/2 35/2/2
f 35/2/2 34/2/2 36/2/2
f 37/4/2 38/4/2 39/4/2
f 39/4/2 38/4/2 40/4/2
f 43/4/3 42/4/3 41/4/3
f 44/4/3 42/4/3 43/4/3
f 47/2/3 46/2/3 45/2/3
f 48/2/3 46/2/3 47/2/3
f 51/4/3 50/4/3 49/4/3
f 52/4/3 50/4/3 51/4/3
f 57/3/3 54/3/3 53/3/3
f 58/3/3 54/3/3 57/3/3
f 59/1/3 56/1/3 55/1/3
f 60/1/3 56/1/3 59/1/3
f 61/3/4 62/3/4 65/3/4
f 65/3/4 62/3/4 66/3/4
f 63/1/4 64/1/4 67/1/4
f 67/1/4 64/1/4 68/1/4
f 69/4/4 70/4/4 71/4/4
f 71/4/4 70/4/4 72/4/4
f 73/2/4 74/2/4 75/2/4
f 75/2/4 74/2/4 76/2/4
f 77/4/4 78/4/4 79/4/4
f 79/4/4 78/4/4 80/4/4
f 83/3/5 82/3/5 81/3/5
f 84/3/5 82/3/5 83/3/5
f 87/4/5 86/4/5 85/4/5
f 88/4/5 86/4/5 87/4/5
f 89/4/5 87/4/5 85/4/5
f 90/4/5 86/4/5 88/4/5
f 91/4/5 89/4/5 85/4/5
f 91/4/5 90/4/5 89/4/5
f 92/4/5 86/4/5 90/4/5
f 92/4/5 90/4/5 91/4/5
f 93/4/6 94/4/6 95/4/6
f 95/4/6 94/4/6 96/4/6
f 93/4/6 95/4/6 97/4/6
f 96/4/6 94/4/6 98/4/6
f 93/4/6 97/4/6 99/4/6
f 97/4/6 98/4/6 99/4/6
f 98/4/6 94/4/6 100/4/6
f 99/4/6 98/4/6 100/4/6
f 101/2/6 102/2/6 103/2/6
f 103/2/6 102/2/6 104/2/6
f 101/2/6 103/2/6 105/2/6
f 104/2/6 102/2/6 106/2/6
f 101/2/6 105/2/6 107/2/6
f 105/2/6 106/2/6 107/2/6
f 106/2/6 102/2/6 108/2/6
f 107/2/6 106/2/6 108/2/6
f 109/4/6 110/4/6 111/4/6
f 111/4/6 110/4/6 112/4/6
f 109/4/6 111/4/6 113/4/6
f 112/4/6 110/4/6 114/4/6
f 109/4/6 113/4/6 115/4/6
f 113/4/6 114/4/6 115/4/6
f 114/4/6 110/4/6 116/4/6
f 115/4/6 114/4/6 116/4/6
f 117/1/6 118/1/6 119/1/6
f 119/1/6 118/1/6 120/1/6
