# MagicaVoxel @ Ephtracy

# material
mtllib watertile.mtl
usemtl palette

# normals
vn -1 0 0
vn 1 0 0
vn 0 0 1
vn 0 0 -1
vn 0 -1 0
vn 0 1 0

# texcoords
vt 0.0488281 0.5
vt 0.0683594 0.5
vt 0.119141 0.5

# verts
v -10 0 10
v -10 0 -10
v -10 2 9
v -10 2 7
v -10 2 -7
v -10 2 -9
v -10 3 9
v -10 3 7
v -10 3 -7
v -10 3 -9
v -10 4 7
v -10 4 3
v -10 4 -3
v -10 4 -7
v -10 5 3
v -10 5 -3
v -10 7 9
v -10 7 5
v -10 7 -5
v -10 7 -9
v -10 8 9
v -10 8 6
v -10 8 5
v -10 8 4
v -10 8 -4
v -10 8 -5
v -10 8 -6
v -10 8 -9
v -10 9 6
v -10 9 5
v -10 9 4
v -10 9 -4
v -10 9 -5
v -10 9 -6
v -10 10 5
v -10 10 1
v -10 10 -1
v -10 10 -5
v -10 11 1
v -10 11 -1
v -10 13 10
v -10 13 8
v -10 13 7
v -10 13 6
v -10 13 5
v -10 13 2
v -10 13 1
v -10 13 -1
v -10 13 -2
v -10 13 -5
v -10 13 -6
v -10 13 -7
v -10 13 -8
v -10 13 -10
v -10 14 10
v -10 14 8
v -10 14 7
v -10 14 6
v -10 14 5
v -10 14 2
v -10 14 1
v -10 14 -1
v -10 14 -2
v -10 14 -5
v -10 14 -6
v -10 14 -7
v -10 14 -8
v -10 14 -10
v 9 0 9
v 9 0 -9
v 9 1 9
v 9 1 -9
v 9 2 9
v 9 2 7
v 9 2 -7
v 9 2 -9
v 9 3 9
v 9 3 7
v 9 3 -7
v 9 3 -9
v -9 0 9
v -9 0 -9
v -9 1 9
v -9 1 -9
v -9 2 9
v -9 2 7
v -9 2 -7
v -9 2 -9
v -9 3 9
v -9 3 7
v -9 3 -7
v -9 3 -9
v 10 0 10
v 10 0 -10
v 10 2 9
v 10 2 7
v 10 2 -7
v 10 2 -9
v 10 3 9
v 10 3 7
v 10 3 -7
v 10 3 -9
v 10 4 7
v 10 4 3
v 10 4 -3
v 10 4 -7
v 10 5 3
v 10 5 -3
v 10 7 9
v 10 7 5
v 10 7 -5
v 10 7 -9
v 10 8 9
v 10 8 6
v 10 8 5
v 10 8 4
v 10 8 -4
v 10 8 -5
v 10 8 -6
v 10 8 -9
v 10 9 6
v 10 9 5
v 10 9 4
v 10 9 -4
v 10 9 -5
v 10 9 -6
v 10 10 5
v 10 10 1
v 10 10 -1
v 10 10 -5
v 10 11 1
v 10 11 -1
v 10 13 10
v 10 13 8
v 10 13 7
v 10 13 6
v 10 13 5
v 10 13 2
v 10 13 1
v 10 13 -1
v 10 13 -2
v 10 13 -5
v 10 13 -6
v 10 13 -7
v 10 13 -8
v 10 13 -10
v 10 14 10
v 10 14 8
v 10 14 7
v 10 14 6
v 10 14 5
v 10 14 2
v 10 14 1
v 10 14 -1
v 10 14 -2
v 10 14 -5
v 10 14 -6
v 10 14 -7
v 10 14 -8
v 10 14 -10
v -10 0 10
v -10 13 10
v -10 14 10
v -9 1 10
v -9 2 10
v -9 7 10
v -9 8 10
v -6 13 10
v -6 14 10
v -5 2 10
v -5 3 10
v -5 7 10
v -5 8 10
v -5 9 10
v -4 1 10
v -4 2 10
v -3 3 10
v -3 4 10
v -2 2 10
v -2 3 10
v -2 9 10
v -2 10 10
v -1 4 10
v -1 5 10
v -1 8 10
v -1 9 10
v -1 13 10
v -1 14 10
v 1 4 10
v 1 5 10
v 1 8 10
v 1 9 10
v 1 13 10
v 1 14 10
v 2 2 10
v 2 3 10
v 2 9 10
v 2 10 10
v 3 3 10
v 3 4 10
v 4 1 10
v 4 2 10
v 5 2 10
v 5 3 10
v 5 7 10
v 5 8 10
v 5 9 10
v 6 13 10
v 6 14 10
v 9 1 10
v 9 2 10
v 9 7 10
v 9 8 10
v 10 0 10
v 10 13 10
v 10 14 10
v -9 0 -9
v -9 1 -9
v -9 2 -9
v -9 3 -9
v -5 2 -9
v -5 3 -9
v -4 1 -9
v -4 2 -9
v -2 2 -9
v -2 3 -9
v 2 2 -9
v 2 3 -9
v 4 1 -9
v 4 2 -9
v 5 2 -9
v 5 3 -9
v 9 0 -9
v 9 1 -9
v 9 2 -9
v 9 3 -9
v -9 0 9
v -9 1 9
v -9 2 9
v -9 3 9
v -5 2 9
v -5 3 9
v -4 1 9
v -4 2 9
v -2 2 9
v -2 3 9
v 2 2 9
v 2 3 9
v 4 1 9
v 4 2 9
v 5 2 9
v 5 3 9
v 9 0 9
v 9 1 9
v 9 2 9
v 9 3 9
v -10 0 -10
v -10 13 -10
v -10 14 -10
v -9 1 -10
v -9 2 -10
v -9 7 -10
v -9 8 -10
v -6 13 -10
v -6 14 -10
v -5 2 -10
v -5 3 -10
v -5 7 -10
v -5 8 -10
v -5 9 -10
v -4 1 -10
v -4 2 -10
v -3 3 -10
v -3 4 -10
v -2 2 -10
v -2 3 -10
v -2 9 -10
v -2 10 -10
v -1 4 -10
v -1 5 -10
v -1 8 -10
v -1 9 -10
v -1 13 -10
v -1 14 -10
v 1 4 -10
v 1 5 -10
v 1 8 -10
v 1 9 -10
v 1 13 -10
v 1 14 -10
v 2 2 -10
v 2 3 -10
v 2 9 -10
v 2 10 -10
v 3 3 -10
v 3 4 -10
v 4 1 -10
v 4 2 -10
v 5 2 -10
v 5 3 -10
v 5 7 -10
v 5 8 -10
v 5 9 -10
v 6 13 -10
v 6 14 -10
v 9 1 -10
v 9 2 -10
v 9 7 -10
v 9 8 -10
v 10 0 -10
v 10 13 -10
v 10 14 -10
v -10 0 10
v 10 0 10
v -9 0 9
v 9 0 9
v -9 0 -9
v 9 0 -9
v -10 0 -10
v 10 0 -10
v -9 3 9
v -5 3 9
v -2 3 9
v 2 3 9
v 5 3 9
v 9 3 9
v -9 3 7
v 9 3 7
v -9 3 -7
v 9 3 -7
v -9 3 -9
v -5 3 -9
v -2 3 -9
v 2 3 -9
v 5 3 -9
v 9 3 -9
v -10 14 10
v -6 14 10
v -1 14 10
v 1 14 10
v 6 14 10
v 10 14 10
v -6 14 9
v -4 14 9
v -1 14 9
v 1 14 9
v 4 14 9
v 6 14 9
v -10 14 8
v -9 14 8
v -4 14 8
v 4 14 8
v 9 14 8
v 10 14 8
v -10 14 7
v -9 14 7
v 9 14 7
v 10 14 7
v -10 14 6
v -9 14 6
v -7 14 6
v -2 14 6
v 2 14 6
v 7 14 6
v 9 14 6
v 10 14 6
v -10 14 5
v -8 14 5
v -7 14 5
v -2 14 5
v 2 14 5
v 7 14 5
v 8 14 5
v 10 14 5
v -8 14 4
v -2 14 4
v 2 14 4
v 8 14 4
v -8 14 3
v -3 14 3
v 3 14 3
v 8 14 3
v -10 14 2
v -9 14 2
v -8 14 2
v -3 14 2
v 3 14 2
v 8 14 2
v 9 14 2
v 10 14 2
v -10 14 1
v -9 14 1
v -3 14 1
v 3 14 1
v 9 14 1
v 10 14 1
v -10 14 -1
v -9 14 -1
v -3 14 -1
v 3 14 -1
v 9 14 -1
v 10 14 -1
v -10 14 -2
v -9 14 -2
v -8 14 -2
v -3 14 -2
v 3 14 -2
v 8 14 -2
v 9 14 -2
v 10 14 -2
v -8 14 -3
v -3 14 -3
v 3 14 -3
v 8 14 -3
v -8 14 -4
v -2 14 -4
v 2 14 -4
v 8 14 -4
v -10 14 -5
v -8 14 -5
v -7 14 -5
v -2 14 -5
v 2 14 -5
v 7 14 -5
v 8 14 -5
v 10 14 -5
v -10 14 -6
v -9 14 -6
v -7 14 -6
v -2 14 -6
v 2 14 -6
v 7 14 -6
v 9 14 -6
v 10 14 -6
v -10 14 -7
v -9 14 -7
v 9 14 -7
v 10 14 -7
v -10 14 -8
v -9 14 -8
v -4 14 -8
v 4 14 -8
v 9 14 -8
v 10 14 -8
v -6 14 -9
v -4 14 -9
v -1 14 -9
v 1 14 -9
v 4 14 -9
v 6 14 -9
v -10 14 -10
v -6 14 -10
v -1 14 -10
v 1 14 -10
v 6 14 -10
v 10 14 -10

# faces
f 3/2/1 2/2/1 1/2/1
f 4/2/1 2/2/1 3/2/1
f 5/2/1 2/2/1 4/2/1
f 6/2/1 2/2/1 5/2/1
f 7/2/1 3/2/1 1/2/1
f 7/1/1 4/1/1 3/1/1
f 8/2/1 5/2/1 4/2/1
f 8/1/1 4/1/1 7/1/1
f 9/1/1 6/1/1 5/1/1
f 9/2/1 5/2/1 8/2/1
f 10/2/1 2/2/1 6/2/1
f 10/1/1 6/1/1 9/1/1
f 11/1/1 9/1/1 8/1/1
f 11/2/1 8/2/1 7/2/1
f 12/1/1 9/1/1 11/1/1
f 13/1/1 9/1/1 12/1/1
f 14/2/1 10/2/1 9/2/1
f 14/1/1 9/1/1 13/1/1
f 15/1/1 13/1/1 12/1/1
f 15/2/1 12/2/1 11/2/1
f 16/2/1 14/2/1 13/2/1
f 16/1/1 13/1/1 15/1/1
f 17/2/1 7/2/1 1/2/1
f 17/2/1 11/2/1 7/2/1
f 17/2/1 16/2/1 15/2/1
f 17/2/1 15/2/1 11/2/1
f 18/2/1 16/2/1 17/2/1
f 19/2/1 14/2/1 16/2/1
f 19/2/1 16/2/1 18/2/1
f 20/2/1 2/2/1 10/2/1
f 20/2/1 14/2/1 19/2/1
f 20/2/1 10/2/1 14/2/1
f 21/2/1 17/2/1 1/2/1
f 21/1/1 18/1/1 17/1/1
f 22/1/1 18/1/1 21/1/1
f 23/2/1 19/2/1 18/2/1
f 23/1/1 18/1/1 22/1/1
f 24/2/1 19/2/1 23/2/1
f 25/2/1 19/2/1 24/2/1
f 26/1/1 20/1/1 19/1/1
f 26/2/1 19/2/1 25/2/1
f 27/1/1 20/1/1 26/1/1
f 28/2/1 2/2/1 20/2/1
f 28/1/1 20/1/1 27/1/1
f 29/2/1 22/2/1 21/2/1
f 29/1/1 23/1/1 22/1/1
f 29/1/1 24/1/1 23/1/1
f 30/1/1 24/1/1 29/1/1
f 31/2/1 25/2/1 24/2/1
f 31/1/1 24/1/1 30/1/1
f 32/1/1 27/1/1 26/1/1
f 32/2/1 25/2/1 31/2/1
f 32/1/1 26/1/1 25/1/1
f 33/1/1 27/1/1 32/1/1
f 34/2/1 28/2/1 27/2/1
f 34/1/1 27/1/1 33/1/1
f 35/1/1 31/1/1 30/1/1
f 35/2/1 30/2/1 29/2/1
f 35/1/1 33/1/1 32/1/1
f 35/1/1 32/1/1 31/1/1
f 36/1/1 33/1/1 35/1/1
f 37/1/1 33/1/1 36/1/1
f 38/2/1 34/2/1 33/2/1
f 38/1/1 33/1/1 37/1/1
f 39/1/1 37/1/1 36/1/1
f 39/2/1 36/2/1 35/2/1
f 40/2/1 38/2/1 37/2/1
f 40/1/1 37/1/1 39/1/1
f 41/2/1 21/2/1 1/2/1
f 41/2/1 29/2/1 21/2/1
f 41/2/1 40/2/1 39/2/1
f 41/2/1 39/2/1 35/2/1
f 41/2/1 35/2/1 29/2/1
f 42/2/1 40/2/1 41/2/1
f 43/2/1 40/2/1 42/2/1
f 44/2/1 40/2/1 43/2/1
f 45/2/1 40/2/1 44/2/1
f 46/2/1 40/2/1 45/2/1
f 47/2/1 40/2/1 46/2/1
f 48/2/1 38/2/1 40/2/1
f 48/2/1 40/2/1 47/2/1
f 49/2/1 38/2/1 48/2/1
f 50/2/1 34/2/1 38/2/1
f 50/2/1 38/2/1 49/2/1
f 51/2/1 28/2/1 34/2/1
f 51/2/1 34/2/1 50/2/1
f 52/2/1 28/2/1 51/2/1
f 53/2/1 28/2/1 52/2/1
f 54/2/1 2/2/1 28/2/1
f 54/2/1 28/2/1 53/2/1
f 55/1/1 42/1/1 41/1/1
f 56/2/1 43/2/1 42/2/1
f 56/1/1 42/1/1 55/1/1
f 57/1/1 44/1/1 43/1/1
f 57/2/1 43/2/1 56/2/1
f 58/2/1 45/2/1 44/2/1
f 58/1/1 44/1/1 57/1/1
f 59/1/1 46/1/1 45/1/1
f 59/2/1 45/2/1 58/2/1
f 60/2/1 47/2/1 46/2/1
f 60/1/1 46/1/1 59/1/1
f 61/1/1 48/1/1 47/1/1
f 61/2/1 47/2/1 60/2/1
f 62/2/1 49/2/1 48/2/1
f 62/1/1 48/1/1 61/1/1
f 63/1/1 50/1/1 49/1/1
f 63/2/1 49/2/1 62/2/1
f 64/2/1 51/2/1 50/2/1
f 64/1/1 50/1/1 63/1/1
f 65/1/1 52/1/1 51/1/1
f 65/2/1 51/2/1 64/2/1
f 66/2/1 53/2/1 52/2/1
f 66/1/1 52/1/1 65/1/1
f 67/1/1 54/1/1 53/1/1
f 67/2/1 53/2/1 66/2/1
f 68/1/1 54/1/1 67/1/1
f 71/2/1 70/2/1 69/2/1
f 72/2/1 70/2/1 71/2/1
f 73/2/1 72/2/1 71/2/1
f 74/2/1 72/2/1 73/2/1
f 75/2/1 72/2/1 74/2/1
f 76/2/1 72/2/1 75/2/1
f 77/1/1 74/1/1 73/1/1
f 78/2/1 75/2/1 74/2/1
f 78/1/1 74/1/1 77/1/1
f 79/1/1 76/1/1 75/1/1
f 79/2/1 75/2/1 78/2/1
f 80/1/1 76/1/1 79/1/1
f 81/2/2 82/2/2 83/2/2
f 83/2/2 82/2/2 84/2/2
f 83/2/2 84/2/2 85/2/2
f 85/2/2 84/2/2 86/2/2
f 86/2/2 84/2/2 87/2/2
f 87/2/2 84/2/2 88/2/2
f 85/1/2 86/1/2 89/1/2
f 86/2/2 87/2/2 90/2/2
f 89/1/2 86/1/2 90/1/2
f 87/1/2 88/1/2 91/1/2
f 90/2/2 87/2/2 91/2/2
f 91/1/2 88/1/2 92/1/2
f 93/2/2 94/2/2 95/2/2
f 95/2/2 94/2/2 96/2/2
f 96/2/2 94/2/2 97/2/2
f 97/2/2 94/2/2 98/2/2
f 93/2/2 95/2/2 99/2/2
f 95/1/2 96/1/2 99/1/2
f 96/2/2 97/2/2 100/2/2
f 99/1/2 96/1/2 100/1/2
f 97/1/2 98/1/2 101/1/2
f 100/2/2 97/2/2 101/2/2
f 98/2/2 94/2/2 102/2/2
f 101/1/2 98/1/2 102/1/2
f 100/1/2 101/1/2 103/1/2
f 99/2/2 100/2/2 103/2/2
f 103/1/2 101/1/2 104/1/2
f 104/1/2 101/1/2 105/1/2
f 101/2/2 102/2/2 106/2/2
f 105/1/2 101/1/2 106/1/2
f 104/1/2 105/1/2 107/1/2
f 103/2/2 104/2/2 107/2/2
f 105/2/2 106/2/2 108/2/2
f 107/1/2 105/1/2 108/1/2
f 93/2/2 99/2/2 109/2/2
f 99/2/2 103/2/2 109/2/2
f 107/2/2 108/2/2 109/2/2
f 103/2/2 107/2/2 109/2/2
f 109/2/2 108/2/2 110/2/2
f 108/2/2 106/2/2 111/2/2
f 110/2/2 108/2/2 111/2/2
f 102/2/2 94/2/2 112/2/2
f 111/2/2 106/2/2 112/2/2
f 106/2/2 102/2/2 112/2/2
f 93/2/2 109/2/2 113/2/2
f 109/1/2 110/1/2 113/1/2
f 113/1/2 110/1/2 114/1/2
f 110/2/2 111/2/2 115/2/2
f 114/1/2 110/1/2 115/1/2
f 115/2/2 111/2/2 116/2/2
f 116/2/2 111/2/2 117/2/2
f 111/1/2 112/1/2 118/1/2
f 117/2/2 111/2/2 118/2/2
f 118/1/2 112/1/2 119/1/2
f 112/2/2 94/2/2 120/2/2
f 119/1/2 112/1/2 120/1/2
f 113/2/2 114/2/2 121/2/2
f 114/1/2 115/1/2 121/1/2
f 115/1/2 116/1/2 121/1/2
f 121/1/2 116/1/2 122/1/2
f 116/2/2 117/2/2 123/2/2
f 122/1/2 116/1/2 123/1/2
f 118/1/2 119/1/2 124/1/2
f 123/2/2 117/2/2 124/2/2
f 117/1/2 118/1/2 124/1/2
f 124/1/2 119/1/2 125/1/2
f 119/2/2 120/2/2 126/2/2
f 125/1/2 119/1/2 126/1/2
f 122/1/2 123/1/2 127/1/2
f 121/2/2 122/2/2 127/2/2
f 124/1/2 125/1/2 127/1/2
f 123/1/2 124/1/2 127/1/2
f 127/1/2 125/1/2 128/1/2
f 128/1/2 125/1/2 129/1/2
f 125/2/2 126/2/2 130/2/2
f 129/1/2 125/1/2 130/1/2
f 128/1/2 129/1/2 131/1/2
f 127/2/2 128/2/2 131/2/2
f 129/2/2 130/2/2 132/2/2
f 131/1/2 129/1/2 132/1/2
f 93/2/2 113/2/2 133/2/2
f 113/2/2 121/2/2 133/2/2
f 131/2/2 132/2/2 133/2/2
f 127/2/2 131/2/2 133/2/2
f 121/2/2 127/2/2 133/2/2
f 133/2/2 132/2/2 134/2/2
f 134/2/2 132/2/2 135/2/2
f 135/2/2 132/2/2 136/2/2
f 136/2/2 132/2/2 137/2/2
f 137/2/2 132/2/2 138/2/2
f 138/2/2 132/2/2 139/2/2
f 132/2/2 130/2/2 140/2/2
f 139/2/2 132/2/2 140/2/2
f 140/2/2 130/2/2 141/2/2
f 130/2/2 126/2/2 142/2/2
f 141/2/2 130/2/2 142/2/2
f 126/2/2 120/2/2 143/2/2
f 142/2/2 126/2/2 143/2/2
f 143/2/2 120/2/2 144/2/2
f 144/2/2 120/2/2 145/2/2
f 120/2/2 94/2/2 146/2/2
f 145/2/2 120/2/2 146/2/2
f 133/1/2 134/1/2 147/1/2
f 134/2/2 135/2/2 148/2/2
f 147/1/2 134/1/2 148/1/2
f 135/1/2 136/1/2 149/1/2
f 148/2/2 135/2/2 149/2/2
f 136/2/2 137/2/2 150/2/2
f 149/1/2 136/1/2 150/1/2
f 137/1/2 138/1/2 151/1/2
f 150/2/2 137/2/2 151/2/2
f 138/2/2 139/2/2 152/2/2
f 151/1/2 138/1/2 152/1/2
f 139/1/2 140/1/2 153/1/2
f 152/2/2 139/2/2 153/2/2
f 140/2/2 141/2/2 154/2/2
f 153/1/2 140/1/2 154/1/2
f 141/1/2 142/1/2 155/1/2
f 154/2/2 141/2/2 155/2/2
f 142/2/2 143/2/2 156/2/2
f 155/1/2 142/1/2 156/1/2
f 143/1/2 144/1/2 157/1/2
f 156/2/2 143/2/2 157/2/2
f 144/2/2 145/2/2 158/2/2
f 157/1/2 144/1/2 158/1/2
f 145/1/2 146/1/2 159/1/2
f 158/2/2 145/2/2 159/2/2
f 159/1/2 146/1/2 160/1/2
f 164/2/3 162/2/3 161/2/3
f 165/2/3 162/2/3 164/2/3
f 166/2/3 162/2/3 165/2/3
f 167/2/3 162/2/3 166/2/3
f 168/1/3 163/1/3 162/1/3
f 168/2/3 162/2/3 167/2/3
f 169/1/3 163/1/3 168/1/3
f 170/1/3 165/1/3 164/1/3
f 170/2/3 166/2/3 165/2/3
f 171/2/3 166/2/3 170/2/3
f 172/1/3 167/1/3 166/1/3
f 172/2/3 166/2/3 171/2/3
f 173/2/3 169/2/3 168/2/3
f 173/1/3 167/1/3 172/1/3
f 173/2/3 168/2/3 167/2/3
f 174/2/3 169/2/3 173/2/3
f 175/1/3 171/1/3 170/1/3
f 175/2/3 164/2/3 161/2/3
f 175/1/3 170/1/3 164/1/3
f 176/1/3 171/1/3 175/1/3
f 177/2/3 172/2/3 171/2/3
f 177/1/3 171/1/3 176/1/3
f 177/2/3 173/2/3 172/2/3
f 178/2/3 173/2/3 177/2/3
f 179/2/3 176/2/3 175/2/3
f 179/1/3 177/1/3 176/1/3
f 179/1/3 178/1/3 177/1/3
f 180/1/3 178/1/3 179/1/3
f 181/2/3 169/2/3 174/2/3
f 181/1/3 174/1/3 173/1/3
f 182/2/3 169/2/3 181/2/3
f 183/1/3 178/1/3 180/1/3
f 183/2/3 173/2/3 178/2/3
f 184/2/3 173/2/3 183/2/3
f 185/1/3 182/1/3 181/1/3
f 185/2/3 173/2/3 184/2/3
f 185/1/3 181/1/3 173/1/3
f 186/1/3 182/1/3 185/1/3
f 187/2/3 169/2/3 182/2/3
f 188/2/3 169/2/3 187/2/3
f 189/1/3 184/1/3 183/1/3
f 189/1/3 183/1/3 180/1/3
f 190/2/3 185/2/3 184/2/3
f 190/1/3 184/1/3 189/1/3
f 190/2/3 186/2/3 185/2/3
f 191/2/3 186/2/3 190/2/3
f 192/1/3 182/1/3 186/1/3
f 192/2/3 186/2/3 191/2/3
f 193/1/3 188/1/3 187/1/3
f 193/2/3 187/2/3 182/2/3
f 194/1/3 188/1/3 193/1/3
f 195/2/3 180/2/3 179/2/3
f 195/2/3 179/2/3 175/2/3
f 196/1/3 189/1/3 180/1/3
f 196/2/3 180/2/3 195/2/3
f 197/1/3 182/1/3 192/1/3
f 197/1/3 192/1/3 191/1/3
f 198/2/3 194/2/3 193/2/3
f 198/1/3 182/1/3 197/1/3
f 198/2/3 193/2/3 182/2/3
f 199/1/3 189/1/3 196/1/3
f 199/1/3 196/1/3 195/1/3
f 200/2/3 191/2/3 190/2/3
f 200/1/3 189/1/3 199/1/3
f 200/2/3 190/2/3 189/2/3
f 201/2/3 175/2/3 161/2/3
f 201/2/3 195/2/3 175/2/3
f 202/1/3 199/1/3 195/1/3
f 202/2/3 195/2/3 201/2/3
f 203/1/3 202/1/3 201/1/3
f 203/1/3 199/1/3 202/1/3
f 204/2/3 200/2/3 199/2/3
f 204/1/3 199/1/3 203/1/3
f 205/2/3 191/2/3 200/2/3
f 205/2/3 200/2/3 204/2/3
f 206/1/3 197/1/3 191/1/3
f 206/2/3 191/2/3 205/2/3
f 207/2/3 198/2/3 197/2/3
f 207/1/3 197/1/3 206/1/3
f 208/2/3 194/2/3 198/2/3
f 208/2/3 198/2/3 207/2/3
f 208/2/3 207/2/3 206/2/3
f 209/2/3 194/2/3 208/2/3
f 210/2/3 201/2/3 161/2/3
f 210/1/3 203/1/3 201/1/3
f 211/2/3 204/2/3 203/2/3
f 211/1/3 203/1/3 210/1/3
f 211/2/3 205/2/3 204/2/3
f 212/1/3 206/1/3 205/1/3
f 212/2/3 205/2/3 211/2/3
f 213/2/3 208/2/3 206/2/3
f 213/1/3 206/1/3 212/1/3
f 214/2/3 210/2/3 161/2/3
f 214/2/3 212/2/3 211/2/3
f 214/2/3 213/2/3 212/2/3
f 214/2/3 211/2/3 210/2/3
f 215/2/3 208/2/3 213/2/3
f 215/2/3 213/2/3 214/2/3
f 215/1/3 209/1/3 208/1/3
f 216/1/3 209/1/3 215/1/3
f 221/1/3 219/1/3 218/1/3
f 221/2/3 220/2/3 219/2/3
f 222/2/3 220/2/3 221/2/3
f 223/2/3 218/2/3 217/2/3
f 223/1/3 221/1/3 218/1/3
f 223/1/3 222/1/3 221/1/3
f 224/1/3 222/1/3 223/1/3
f 225/2/3 224/2/3 223/2/3
f 225/1/3 222/1/3 224/1/3
f 226/1/3 222/1/3 225/1/3
f 227/2/3 225/2/3 223/2/3
f 227/2/3 226/2/3 225/2/3
f 228/2/3 226/2/3 227/2/3
f 229/2/3 223/2/3 217/2/3
f 229/2/3 227/2/3 223/2/3
f 230/1/3 228/1/3 227/1/3
f 230/2/3 227/2/3 229/2/3
f 231/1/3 230/1/3 229/1/3
f 231/1/3 228/1/3 230/1/3
f 232/1/3 228/1/3 231/1/3
f 233/2/3 229/2/3 217/2/3
f 234/1/3 231/1/3 229/1/3
f 234/2/3 229/2/3 233/2/3
f 235/2/3 232/2/3 231/2/3
f 235/1/3 231/1/3 234/1/3
f 236/2/3 232/2/3 235/2/3
f 238/1/4 239/1/4 241/1/4
f 239/2/4 240/2/4 241/2/4
f 241/2/4 240/2/4 242/2/4
f 237/2/4 238/2/4 243/2/4
f 238/1/4 241/1/4 243/1/4
f 241/1/4 242/1/4 243/1/4
f 243/1/4 242/1/4 244/1/4
f 243/2/4 244/2/4 245/2/4
f 244/1/4 242/1/4 245/1/4
f 245/1/4 242/1/4 246/1/4
f 243/2/4 245/2/4 247/2/4
f 245/2/4 246/2/4 247/2/4
f 247/2/4 246/2/4 248/2/4
f 237/2/4 243/2/4 249/2/4
f 243/2/4 247/2/4 249/2/4
f 247/1/4 248/1/4 250/1/4
f 249/2/4 247/2/4 250/2/4
f 249/1/4 250/1/4 251/1/4
f 250/1/4 248/1/4 251/1/4
f 251/1/4 248/1/4 252/1/4
f 237/2/4 249/2/4 253/2/4
f 249/1/4 251/1/4 254/1/4
f 253/2/4 249/2/4 254/2/4
f 251/2/4 252/2/4 255/2/4
f 254/1/4 251/1/4 255/1/4
f 255/2/4 252/2/4 256/2/4
f 257/2/4 258/2/4 260/2/4
f 260/2/4 258/2/4 261/2/4
f 261/2/4 258/2/4 262/2/4
f 262/2/4 258/2/4 263/2/4
f 258/1/4 259/1/4 264/1/4
f 263/2/4 258/2/4 264/2/4
f 264/1/4 259/1/4 265/1/4
f 260/1/4 261/1/4 266/1/4
f 261/2/4 262/2/4 266/2/4
f 266/2/4 262/2/4 267/2/4
f 262/1/4 263/1/4 268/1/4
f 267/2/4 262/2/4 268/2/4
f 264/2/4 265/2/4 269/2/4
f 268/1/4 263/1/4 269/1/4
f 263/2/4 264/2/4 269/2/4
f 269/2/4 265/2/4 270/2/4
f 266/1/4 267/1/4 271/1/4
f 257/2/4 260/2/4 271/2/4
f 260/1/4 266/1/4 271/1/4
f 271/1/4 267/1/4 272/1/4
f 267/2/4 268/2/4 273/2/4
f 272/1/4 267/1/4 273/1/4
f 268/2/4 269/2/4 273/2/4
f 273/2/4 269/2/4 274/2/4
f 271/2/4 272/2/4 275/2/4
f 272/1/4 273/1/4 275/1/4
f 273/1/4 274/1/4 275/1/4
f 275/1/4 274/1/4 276/1/4
f 270/2/4 265/2/4 277/2/4
f 269/1/4 270/1/4 277/1/4
f 277/2/4 265/2/4 278/2/4
f 276/1/4 274/1/4 279/1/4
f 274/2/4 269/2/4 279/2/4
f 279/2/4 269/2/4 280/2/4
f 277/1/4 278/1/4 281/1/4
f 280/2/4 269/2/4 281/2/4
f 269/1/4 277/1/4 281/1/4
f 281/1/4 278/1/4 282/1/4
f 278/2/4 265/2/4 283/2/4
f 283/2/4 265/2/4 284/2/4
f 279/1/4 280/1/4 285/1/4
f 276/1/4 279/1/4 285/1/4
f 280/2/4 281/2/4 286/2/4
f 285/1/4 280/1/4 286/1/4
f 281/2/4 282/2/4 286/2/4
f 286/2/4 282/2/4 287/2/4
f 282/1/4 278/1/4 288/1/4
f 287/2/4 282/2/4 288/2/4
f 283/1/4 284/1/4 289/1/4
f 278/2/4 283/2/4 289/2/4
f 289/1/4 284/1/4 290/1/4
f 275/2/4 276/2/4 291/2/4
f 271/2/4 275/2/4 291/2/4
f 276/1/4 285/1/4 292/1/4
f 291/2/4 276/2/4 292/2/4
f 288/1/4 278/1/4 293/1/4
f 287/1/4 288/1/4 293/1/4
f 289/2/4 290/2/4 294/2/4
f 293/1/4 278/1/4 294/1/4
f 278/2/4 289/2/4 294/2/4
f 292/1/4 285/1/4 295/1/4
f 291/1/4 292/1/4 295/1/4
f 286/2/4 287/2/4 296/2/4
f 295/1/4 285/1/4 296/1/4
f 285/2/4 286/2/4 296/2/4
f 257/2/4 271/2/4 297/2/4
f 271/2/4 291/2/4 297/2/4
f 291/1/4 295/1/4 298/1/4
f 297/2/4 291/2/4 298/2/4
f 297/1/4 298/1/4 299/1/4
f 298/1/4 295/1/4 299/1/4
f 295/2/4 296/2/4 300/2/4
f 299/1/4 295/1/4 300/1/4
f 296/2/4 287/2/4 301/2/4
f 300/2/4 296/2/4 301/2/4
f 287/1/4 293/1/4 302/1/4
f 301/2/4 287/2/4 302/2/4
f 293/2/4 294/2/4 303/2/4
f 302/1/4 293/1/4 303/1/4
f 294/2/4 290/2/4 304/2/4
f 303/2/4 294/2/4 304/2/4
f 302/2/4 303/2/4 304/2/4
f 304/2/4 290/2/4 305/2/4
f 257/2/4 297/2/4 306/2/4
f 297/1/4 299/1/4 306/1/4
f 299/2/4 300/2/4 307/2/4
f 306/1/4 299/1/4 307/1/4
f 300/2/4 301/2/4 307/2/4
f 301/1/4 302/1/4 308/1/4
f 307/2/4 301/2/4 308/2/4
f 302/2/4 304/2/4 309/2/4
f 308/1/4 302/1/4 309/1/4
f 257/2/4 306/2/4 310/2/4
f 307/2/4 308/2/4 310/2/4
f 308/2/4 309/2/4 310/2/4
f 306/2/4 307/2/4 310/2/4
f 309/2/4 304/2/4 311/2/4
f 310/2/4 309/2/4 311/2/4
f 304/1/4 305/1/4 311/1/4
f 311/1/4 305/1/4 312/1/4
f 315/2/5 314/2/5 313/2/5
f 316/2/5 314/2/5 315/2/5
f 317/2/5 315/2/5 313/2/5
f 318/2/5 314/2/5 316/2/5
f 319/2/5 317/2/5 313/2/5
f 319/2/5 318/2/5 317/2/5
f 320/2/5 314/2/5 318/2/5
f 320/2/5 318/2/5 319/2/5
f 327/1/5 322/1/5 321/1/5
f 327/1/5 326/1/5 325/1/5
f 327/1/5 325/1/5 324/1/5
f 327/1/5 324/1/5 323/1/5
f 327/1/5 323/1/5 322/1/5
f 328/1/5 326/1/5 327/1/5
f 329/1/5 328/1/5 327/1/5
f 330/1/5 328/1/5 329/1/5
f 331/1/5 330/1/5 329/1/5
f 332/1/5 330/1/5 331/1/5
f 333/1/5 330/1/5 332/1/5
f 334/1/5 330/1/5 333/1/5
f 335/1/5 330/1/5 334/1/5
f 336/1/5 330/1/5 335/1/5
f 337/1/6 338/1/6 343/1/6
f 338/2/6 339/2/6 343/2/6
f 343/2/6 339/2/6 344/2/6
f 339/1/6 340/1/6 345/1/6
f 344/2/6 339/2/6 345/2/6
f 340/2/6 341/2/6 346/2/6
f 345/1/6 340/1/6 346/1/6
f 346/2/6 341/2/6 347/2/6
f 341/1/6 342/1/6 348/1/6
f 347/2/6 341/2/6 348/2/6
f 343/1/6 344/1/6 349/1/6
f 337/1/6 343/1/6 349/1/6
f 349/1/6 344/1/6 350/1/6
f 346/2/6 347/2/6 351/2/6
f 350/1/6 344/1/6 351/1/6
f 344/2/6 345/2/6 351/2/6
f 345/2/6 346/2/6 351/2/6
f 347/1/6 348/1/6 352/1/6
f 351/2/6 347/2/6 352/2/6
f 348/1/6 342/1/6 353/1/6
f 352/1/6 348/1/6 353/1/6
f 353/1/6 342/1/6 354/1/6
f 349/2/6 350/2/6 355/2/6
f 351/1/6 352/1/6 356/1/6
f 355/2/6 350/2/6 356/2/6
f 350/1/6 351/1/6 356/1/6
f 352/1/6 353/1/6 356/1/6
f 353/2/6 354/2/6 357/2/6
f 356/1/6 353/1/6 357/1/6
f 357/2/6 354/2/6 358/2/6
f 355/1/6 356/1/6 359/1/6
f 356/2/6 357/2/6 360/2/6
f 359/1/6 356/1/6 360/1/6
f 360/2/6 357/2/6 361/2/6
f 361/2/6 357/2/6 362/2/6
f 362/2/6 357/2/6 363/2/6
f 363/2/6 357/2/6 364/2/6
f 357/1/6 358/1/6 365/1/6
f 364/2/6 357/2/6 365/2/6
f 365/1/6 358/1/6 366/1/6
f 359/2/6 360/2/6 367/2/6
f 360/2/6 361/2/6 367/2/6
f 367/2/6 361/2/6 368/2/6
f 361/1/6 362/1/6 369/1/6
f 368/2/6 361/2/6 369/2/6
f 362/2/6 363/2/6 370/2/6
f 369/1/6 362/1/6 370/1/6
f 363/1/6 364/1/6 371/1/6
f 370/2/6 363/2/6 371/2/6
f 365/2/6 366/2/6 372/2/6
f 371/1/6 364/1/6 372/1/6
f 364/2/6 365/2/6 372/2/6
f 372/2/6 366/2/6 373/2/6
f 373/2/6 366/2/6 374/2/6
f 369/2/6 370/2/6 375/2/6
f 367/1/6 368/1/6 375/1/6
f 368/2/6 369/2/6 375/2/6
f 370/1/6 371/1/6 376/1/6
f 375/2/6 370/2/6 376/2/6
f 372/2/6 373/2/6 377/2/6
f 376/1/6 371/1/6 377/1/6
f 371/2/6 372/2/6 377/2/6
f 373/1/6 374/1/6 378/1/6
f 377/2/6 373/2/6 378/2/6
f 367/1/6 375/1/6 379/1/6
f 376/1/6 377/1/6 379/1/6
f 377/1/6 378/1/6 379/1/6
f 375/1/6 376/1/6 379/1/6
f 379/1/6 378/1/6 380/1/6
f 380/1/6 378/1/6 381/1/6
f 378/1/6 374/1/6 382/1/6
f 381/1/6 378/1/6 382/1/6
f 367/1/6 379/1/6 383/1/6
f 383/1/6 379/1/6 384/1/6
f 379/2/6 380/2/6 385/2/6
f 384/1/6 379/1/6 385/1/6
f 380/1/6 381/1/6 386/1/6
f 385/2/6 380/2/6 386/2/6
f 381/2/6 382/2/6 387/2/6
f 386/1/6 381/1/6 387/1/6
f 382/1/6 374/1/6 388/1/6
f 387/2/6 382/2/6 388/2/6
f 388/1/6 374/1/6 389/1/6
f 389/1/6 374/1/6 390/1/6
f 383/2/6 384/2/6 391/2/6
f 384/1/6 385/1/6 392/1/6
f 391/2/6 384/2/6 392/2/6
f 385/1/6 386/1/6 392/1/6
f 386/2/6 387/2/6 393/2/6
f 392/1/6 386/1/6 393/1/6
f 387/1/6 388/1/6 394/1/6
f 393/2/6 387/2/6 394/2/6
f 388/1/6 389/1/6 394/1/6
f 389/2/6 390/2/6 395/2/6
f 394/1/6 389/1/6 395/1/6
f 395/2/6 390/2/6 396/2/6
f 391/1/6 392/1/6 397/1/6
f 393/1/6 394/1/6 397/1/6
f 395/1/6 396/1/6 397/1/6
f 394/1/6 395/1/6 397/1/6
f 392/1/6 393/1/6 397/1/6
f 397/1/6 396/1/6 398/1/6
f 398/1/6 396/1/6 399/1/6
f 399/1/6 396/1/6 400/1/6
f 400/1/6 396/1/6 401/1/6
f 401/1/6 396/1/6 402/1/6
f 397/2/6 398/2/6 403/2/6
f 398/1/6 399/1/6 404/1/6
f 403/2/6 398/2/6 404/2/6
f 404/1/6 399/1/6 405/1/6
f 399/2/6 400/2/6 406/2/6
f 405/1/6 399/1/6 406/1/6
f 400/1/6 401/1/6 407/1/6
f 406/2/6 400/2/6 407/2/6
f 407/1/6 401/1/6 408/1/6
f 401/2/6 402/2/6 409/2/6
f 408/1/6 401/1/6 409/1/6
f 409/2/6 402/2/6 410/2/6
f 404/1/6 405/1/6 411/1/6
f 405/2/6 406/2/6 411/2/6
f 403/1/6 404/1/6 411/1/6
f 406/1/6 407/1/6 412/1/6
f 411/2/6 406/2/6 412/2/6
f 407/2/6 408/2/6 413/2/6
f 412/1/6 407/1/6 413/1/6
f 409/1/6 410/1/6 414/1/6
f 413/2/6 408/2/6 414/2/6
f 408/1/6 409/1/6 414/1/6
f 412/1/6 413/1/6 415/1/6
f 411/1/6 412/1/6 415/1/6
f 413/1/6 414/1/6 415/1/6
f 403/1/6 411/1/6 415/1/6
f 415/1/6 414/1/6 416/1/6
f 416/1/6 414/1/6 417/1/6
f 414/1/6 410/1/6 418/1/6
f 417/1/6 414/1/6 418/1/6
f 403/1/6 415/1/6 419/1/6
f 415/2/6 416/2/6 420/2/6
f 419/1/6 415/1/6 420/1/6
f 420/2/6 416/2/6 421/2/6
f 416/1/6 417/1/6 422/1/6
f 421/2/6 416/2/6 422/2/6
f 417/2/6 418/2/6 423/2/6
f 422/1/6 417/1/6 423/1/6
f 423/2/6 418/2/6 424/2/6
f 418/1/6 410/1/6 425/1/6
f 424/2/6 418/2/6 425/2/6
f 425/1/6 410/1/6 426/1/6
f 420/2/6 421/2/6 427/2/6
f 419/2/6 420/2/6 427/2/6
f 427/2/6 421/2/6 428/2/6
f 421/1/6 422/1/6 429/1/6
f 428/2/6 421/2/6 429/2/6
f 422/2/6 423/2/6 430/2/6
f 429/1/6 422/1/6 430/1/6
f 423/1/6 424/1/6 431/1/6
f 430/2/6 423/2/6 431/2/6
f 425/2/6 426/2/6 432/2/6
f 431/1/6 424/1/6 432/1/6
f 424/2/6 425/2/6 432/2/6
f 432/2/6 426/2/6 433/2/6
f 433/2/6 426/2/6 434/2/6
f 427/1/6 428/1/6 435/1/6
f 429/2/6 430/2/6 436/2/6
f 435/1/6 428/1/6 436/1/6
f 430/2/6 431/2/6 436/2/6
f 428/2/6 429/2/6 436/2/6
f 432/2/6 433/2/6 436/2/6
f 431/2/6 432/2/6 436/2/6
f 433/1/6 434/1/6 437/1/6
f 436/2/6 433/2/6 437/2/6
f 437/1/6 434/1/6 438/1/6
f 435/2/6 436/2/6 439/2/6
f 436/1/6 437/1/6 440/1/6
f 439/2/6 436/2/6 440/2/6
f 440/1/6 437/1/6 441/1/6
f 441/1/6 437/1/6 442/1/6
f 437/2/6 438/2/6 443/2/6
f 442/1/6 437/1/6 443/1/6
f 443/2/6 438/2/6 444/2/6
f 439/1/6 440/1/6 445/1/6
f 440/1/6 441/1/6 445/1/6
f 441/2/6 442/2/6 446/2/6
f 445/1/6 441/1/6 446/1/6
f 446/2/6 442/2/6 447/2/6
f 447/2/6 442/2/6 448/2/6
f 443/1/6 444/1/6 449/1/6
f 448/2/6 442/2/6 449/2/6
f 442/1/6 443/1/6 449/1/6
f 449/1/6 444/1/6 450/1/6
f 439/1/6 445/1/6 451/1/6
f 446/2/6 447/2/6 452/2/6
f 451/1/6 445/1/6 452/1/6
f 445/2/6 446/2/6 452/2/6
f 447/1/6 448/1/6 453/1/6
f 452/2/6 447/2/6 453/2/6
f 449/2/6 450/2/6 454/2/6
f 453/1/6 448/1/6 454/1/6
f 448/2/6 449/2/6 454/2/6
f 450/1/6 444/1/6 455/1/6
f 454/2/6 450/2/6 455/2/6
f 455/1/6 444/1/6 456/1/6
